<svg xmlns="http://www.w3.org/2000/svg" xmlns:xlink="http://www.w3.org/1999/xlink" width="500" zoomAndPan="magnify" viewBox="0 0 375 374.999991" height="500" preserveAspectRatio="xMidYMid meet" version="1.0"><defs><g/><clipPath id="3ff0258837"><path d="M 104.261719 106.484375 L 121.511719 106.484375 L 121.511719 123.734375 L 104.261719 123.734375 Z M 104.261719 106.484375 " clip-rule="nonzero"/></clipPath><clipPath id="0b0537380a"><rect x="0" width="90" y="0" height="162"/></clipPath><clipPath id="58ae379450"><rect x="0" width="70" y="0" height="172"/></clipPath><clipPath id="009b723d19"><rect x="0" width="79" y="0" height="170"/></clipPath><clipPath id="867d32fa1c"><rect x="0" width="113" y="0" height="63"/></clipPath><clipPath id="59a36134cf"><rect x="0" width="115" y="0" height="165"/></clipPath><clipPath id="375af94892"><rect x="0" width="89" y="0" height="153"/></clipPath><clipPath id="8c44678ded"><path d="M 227.332031 123.488281 L 244.582031 123.488281 L 244.582031 140.738281 L 227.332031 140.738281 Z M 227.332031 123.488281 " clip-rule="nonzero"/></clipPath><clipPath id="f57dae217e"><path d="M 328.886719 98 L 346.136719 98 L 346.136719 115.230469 L 328.886719 115.230469 Z M 328.886719 98 " clip-rule="nonzero"/></clipPath><clipPath id="a4c18beab4"><path d="M 68.851562 231.734375 L 86.101562 231.734375 L 86.101562 248.984375 L 68.851562 248.984375 Z M 68.851562 231.734375 " clip-rule="nonzero"/></clipPath><clipPath id="0500db9d9d"><path d="M 337.5 320.492188 L 354.75 320.492188 L 354.75 337.742188 L 337.5 337.742188 Z M 337.5 320.492188 " clip-rule="nonzero"/></clipPath><clipPath id="58b471da45"><path d="M 178.246094 337.5 L 195.496094 337.5 L 195.496094 354.75 L 178.246094 354.75 Z M 178.246094 337.5 " clip-rule="nonzero"/></clipPath><clipPath id="e0770202e4"><path d="M 125.558594 287.976562 L 142.808594 287.976562 L 142.808594 305.226562 L 125.558594 305.226562 Z M 125.558594 287.976562 " clip-rule="nonzero"/></clipPath><clipPath id="18d71db2ce"><path d="M 29.199219 312 L 46.449219 312 L 46.449219 329.242188 L 29.199219 329.242188 Z M 29.199219 312 " clip-rule="nonzero"/></clipPath><clipPath id="6ae0a09cad"><path d="M 46.421875 37.5 L 63.671875 37.5 L 63.671875 54.75 L 46.421875 54.75 Z M 46.421875 37.5 " clip-rule="nonzero"/></clipPath><clipPath id="8199db08b4"><path d="M 178.246094 59.71875 L 195.496094 59.71875 L 195.496094 76.96875 L 178.246094 76.96875 Z M 178.246094 59.71875 " clip-rule="nonzero"/></clipPath><clipPath id="2f730a057b"><path d="M 276.460938 20.492188 L 293.710938 20.492188 L 293.710938 37.742188 L 276.460938 37.742188 Z M 276.460938 20.492188 " clip-rule="nonzero"/></clipPath><clipPath id="a8b6809629"><path d="M 257.507812 296.476562 L 274.757812 296.476562 L 274.757812 313.726562 L 257.507812 313.726562 Z M 257.507812 296.476562 " clip-rule="nonzero"/></clipPath></defs><g clip-path="url(#3ff0258837)"><path fill="#f6d636" d="M 104.273438 115.421875 C 104.449219 115.304688 104.65625 115.277344 104.851562 115.226562 C 105.234375 115.121094 105.632812 115.074219 106.011719 114.941406 C 106.601562 114.730469 107.207031 114.546875 107.773438 114.277344 C 108.402344 113.984375 109.003906 113.636719 109.578125 113.242188 C 109.835938 113.066406 110.074219 112.875 110.296875 112.660156 C 110.722656 112.25 111.074219 111.785156 111.355469 111.265625 C 111.648438 110.714844 111.824219 110.125 112.011719 109.535156 C 112.226562 108.851562 112.410156 108.152344 112.554688 107.449219 C 112.601562 107.21875 112.621094 106.980469 112.65625 106.75 C 112.679688 106.65625 112.722656 106.582031 112.796875 106.523438 C 112.847656 106.480469 112.902344 106.511719 112.9375 106.597656 C 113.035156 106.820312 113.113281 107.050781 113.175781 107.285156 C 113.34375 107.90625 113.535156 108.523438 113.753906 109.128906 C 113.925781 109.578125 114.128906 110.015625 114.359375 110.4375 C 114.484375 110.671875 115.246094 112.003906 115.410156 112.203125 C 115.800781 112.707031 116.285156 113.101562 116.851562 113.386719 C 117.140625 113.527344 117.441406 113.640625 117.75 113.722656 C 118.167969 113.839844 118.582031 113.992188 118.996094 114.117188 C 119.519531 114.277344 120.054688 114.398438 120.597656 114.480469 C 120.875 114.527344 121.144531 114.59375 121.414062 114.679688 C 121.488281 114.699219 121.5 114.753906 121.453125 114.816406 C 121.410156 114.855469 121.363281 114.882812 121.308594 114.902344 C 121.117188 114.972656 120.921875 115.03125 120.722656 115.074219 C 120.175781 115.222656 119.644531 115.410156 119.128906 115.644531 C 118.414062 115.949219 117.753906 116.347656 117.148438 116.839844 C 116.941406 117.011719 116.71875 117.171875 116.503906 117.335938 C 116.179688 117.582031 115.945312 117.898438 115.703125 118.21875 C 114.769531 119.410156 113.753906 123.214844 113.691406 123.527344 C 113.6875 123.558594 113.675781 123.589844 113.664062 123.621094 C 113.644531 123.664062 113.628906 123.726562 113.582031 123.726562 C 113.527344 123.714844 113.488281 123.683594 113.464844 123.628906 C 113.125 122.949219 112.753906 122.285156 112.363281 121.636719 C 112.003906 121.039062 111.660156 120.433594 111.273438 119.851562 C 110.929688 119.328125 110.558594 118.824219 110.160156 118.34375 C 109.605469 117.6875 108.945312 117.171875 108.175781 116.800781 C 107.652344 116.546875 107.109375 116.339844 106.550781 116.183594 C 106.074219 116.050781 105.601562 115.886719 105.125 115.75 C 104.898438 115.6875 104.683594 115.589844 104.441406 115.59375 C 104.375 115.597656 104.324219 115.539062 104.273438 115.5 Z M 104.273438 115.421875 " fill-opacity="1" fill-rule="nonzero"/></g><g transform="matrix(1, 0, 0, 1, 144, 112)"><g clip-path="url(#0b0537380a)"><g fill="#f93d3a" fill-opacity="1"><g transform="translate(1.596269, 128.479139)"><g><path d="M 54.0625 -23 C 51.007812 -21.894531 46.789062 -20.957031 41.40625 -20.1875 C 35.988281 -19.40625 31.441406 -19.117188 27.765625 -19.328125 C 26.828125 -14.878906 26.113281 -10.863281 25.625 -7.28125 C 25.09375 -3.8125 23.910156 -1.769531 22.078125 -1.15625 C 20.203125 -0.550781 17.898438 -0.492188 15.171875 -0.984375 C 13.296875 -1.304688 11.234375 -1.894531 8.984375 -2.75 C 6.703125 -3.5625 4.804688 -4.582031 3.296875 -5.8125 C 2.035156 -6.875 1.179688 -8.34375 0.734375 -10.21875 C 0.367188 -11.644531 0.164062 -13.148438 0.125 -14.734375 C 0.0390625 -16.285156 0.0390625 -17.796875 0.125 -19.265625 C 0.320312 -23.304688 1.132812 -28.445312 2.5625 -34.6875 C 3.988281 -40.914062 5.765625 -47.316406 7.890625 -53.890625 C 9.972656 -60.453125 12.273438 -66.75 14.796875 -72.78125 C 17.285156 -78.820312 19.710938 -83.675781 22.078125 -87.34375 C 23.265625 -89.21875 24.710938 -91.113281 26.421875 -93.03125 C 28.128906 -94.90625 30.148438 -96.085938 32.484375 -96.578125 C 34.804688 -97.066406 37.882812 -97.003906 41.71875 -96.390625 C 45.550781 -95.785156 48.425781 -94.6875 50.34375 -93.09375 C 53.6875 -91.300781 57.171875 -87.265625 60.796875 -80.984375 C 64.390625 -74.703125 67.710938 -67.789062 70.765625 -60.25 C 73.828125 -52.664062 76.457031 -45.265625 78.65625 -38.046875 C 80.820312 -30.828125 82.148438 -25.421875 82.640625 -21.828125 C 83.128906 -18.242188 83.207031 -15.226562 82.875 -12.78125 C 82.507812 -10.738281 81.753906 -9.210938 80.609375 -8.203125 C 79.179688 -6.804688 77.390625 -5.601562 75.234375 -4.59375 C 73.066406 -3.570312 71.066406 -2.816406 69.234375 -2.328125 C 66.546875 -1.585938 64.242188 -1.460938 62.328125 -1.953125 C 60.410156 -2.398438 59.082031 -4.316406 58.34375 -7.703125 C 57.25 -12.234375 55.820312 -17.332031 54.0625 -23 Z M 30.703125 -31.25 C 36.941406 -31.175781 43.46875 -31.953125 50.28125 -33.578125 C 47.132812 -41.816406 43.585938 -49.664062 39.640625 -57.125 C 36.253906 -49.175781 33.273438 -40.550781 30.703125 -31.25 Z M 30.703125 -31.25 "/></g></g></g></g></g><g transform="matrix(1, 0, 0, 1, 119, 92)"><g clip-path="url(#58ae379450)"><g fill="#31a768" fill-opacity="1"><g transform="translate(0.831681, 135.8052)"><g><path d="M 22.78125 -50.234375 C 25.195312 -53.160156 27.804688 -55.984375 30.609375 -58.703125 C 33.421875 -61.421875 36.226562 -63.6875 39.03125 -65.5 C 40.15625 -66.238281 41.425781 -66.953125 42.84375 -67.640625 C 44.269531 -68.285156 45.65625 -68.5 47 -68.28125 C 48.457031 -68.03125 50.695312 -66.648438 53.71875 -64.140625 C 56.695312 -61.597656 57.238281 -59.351562 55.34375 -57.40625 C 54.78125 -56.851562 54.15625 -56.378906 53.46875 -55.984375 C 52.769531 -55.554688 52.117188 -55.148438 51.515625 -54.765625 C 44.878906 -50.492188 39.054688 -45.460938 34.046875 -39.671875 C 35.773438 -38.421875 38.128906 -36.675781 41.109375 -34.4375 C 44.078125 -32.144531 47.09375 -29.8125 50.15625 -27.4375 C 53.175781 -25.019531 55.960938 -22.78125 58.515625 -20.71875 C 61.015625 -18.601562 62.71875 -17.070312 63.625 -16.125 C 65.695312 -13.875 65.160156 -11.328125 62.015625 -8.484375 C 58.859375 -5.585938 56.503906 -4.007812 54.953125 -3.75 C 53.441406 -3.445312 51.328125 -4.097656 48.609375 -5.703125 C 45.890625 -7.253906 43.109375 -9.128906 40.265625 -11.328125 C 37.410156 -13.523438 34.753906 -15.769531 32.296875 -18.0625 C 29.796875 -20.34375 28.023438 -22.066406 26.984375 -23.234375 C 26.734375 -23.578125 26.347656 -24.140625 25.828125 -24.921875 C 27.078125 -19.304688 28.648438 -14.382812 30.546875 -10.15625 C 30.847656 -9.425781 31.171875 -8.671875 31.515625 -7.890625 C 31.867188 -7.117188 32.085938 -6.34375 32.171875 -5.5625 C 32.554688 -2.757812 30.3125 -1.1875 25.4375 -0.84375 C 20.519531 -0.5 17.21875 -0.671875 15.53125 -1.359375 C 14.0625 -1.960938 12.898438 -3 12.046875 -4.46875 C 11.140625 -5.894531 10.40625 -7.296875 9.84375 -8.671875 C 7.6875 -13.984375 6.023438 -21.726562 4.859375 -31.90625 C 3.648438 -42.09375 3.601562 -58.363281 4.71875 -80.71875 C 4.976562 -83 5.5 -84.914062 6.28125 -86.46875 C 6.84375 -87.59375 7.617188 -88.4375 8.609375 -89 C 9.734375 -89.5625 11.113281 -89.972656 12.75 -90.234375 C 14.394531 -90.441406 15.882812 -90.546875 17.21875 -90.546875 C 19.070312 -90.546875 20.582031 -90.222656 21.75 -89.578125 C 22.914062 -88.890625 23.453125 -87.425781 23.359375 -85.1875 C 23.191406 -82.769531 23 -71.117188 22.78125 -50.234375 Z M 22.78125 -50.234375 "/></g></g></g></g></g><g transform="matrix(1, 0, 0, 1, 218, 103)"><g clip-path="url(#009b723d19)"><g fill="#e8678f" fill-opacity="1"><g transform="translate(9.587378, 135.88895)"><g><path d="M 23.828125 -57.328125 C 25.835938 -59.078125 28.675781 -60.257812 32.34375 -60.875 C 35.957031 -61.488281 39.859375 -60.597656 44.046875 -58.203125 C 48.515625 -55.671875 52.015625 -52.15625 54.546875 -47.65625 C 57.066406 -43.113281 58.929688 -38.515625 60.140625 -33.859375 C 60.984375 -30.585938 61.804688 -26.023438 62.609375 -20.171875 C 63.410156 -14.304688 63.125 -9.726562 61.75 -6.4375 C 61.300781 -5.28125 60.5 -4.5625 59.34375 -4.28125 C 57.414062 -3.8125 55.035156 -3.925781 52.203125 -4.625 C 49.367188 -5.300781 47.398438 -6.101562 46.296875 -7.03125 C 45.785156 -7.375 45.429688 -7.8125 45.234375 -8.34375 C 44.847656 -9.070312 44.6875 -9.890625 44.75 -10.796875 C 44.8125 -11.722656 44.898438 -12.585938 45.015625 -13.390625 C 45.367188 -16.410156 45.304688 -19.585938 44.828125 -22.921875 C 44.359375 -26.222656 43.65625 -29.28125 42.71875 -32.09375 C 42.09375 -34.007812 41.34375 -35.625 40.46875 -36.9375 C 37.71875 -40.832031 34.710938 -42.507812 31.453125 -41.96875 C 28.203125 -41.382812 26.066406 -37.722656 25.046875 -30.984375 C 24.691406 -27.015625 25.53125 -21.285156 27.5625 -13.796875 C 27.875 -12.828125 28.191406 -11.804688 28.515625 -10.734375 C 28.796875 -9.640625 28.96875 -8.570312 29.03125 -7.53125 C 29.039062 -5.570312 28.179688 -4.125 26.453125 -3.1875 C 24.722656 -2.226562 22.722656 -1.613281 20.453125 -1.34375 C 18.191406 -1.070312 15.941406 -1.070312 13.703125 -1.34375 C 11.453125 -1.613281 9.867188 -2.007812 8.953125 -2.53125 C 7.265625 -3.457031 6.023438 -4.914062 5.234375 -6.90625 C 4.390625 -8.882812 3.710938 -10.832031 3.203125 -12.75 C 2.304688 -16.445312 1.628906 -21.171875 1.171875 -26.921875 C 0.671875 -32.628906 0.378906 -36.753906 0.296875 -39.296875 C 0.210938 -41.785156 0.226562 -44.675781 0.34375 -47.96875 C 0.414062 -51.257812 1.289062 -55.421875 2.96875 -60.453125 C 3.8125 -61.992188 4.84375 -63.078125 6.0625 -63.703125 C 7.5 -64.460938 9.191406 -64.972656 11.140625 -65.234375 C 13.066406 -65.484375 14.785156 -65.570312 16.296875 -65.5 C 18.554688 -65.394531 20.316406 -64.863281 21.578125 -63.90625 C 22.847656 -62.96875 23.253906 -60.957031 22.796875 -57.875 Z M 23.828125 -57.328125 "/></g></g></g></g></g><g transform="matrix(1, 0, 0, 1, 98, 226)"><g clip-path="url(#867d32fa1c)"><g fill="#25754a" fill-opacity="1"><g transform="translate(7.728135, 16.545516)"><g><path d="M 10.609375 -8.5 C 11.472656 -8.019531 12.410156 -7.363281 13.421875 -6.53125 C 14.453125 -5.6875 15.253906 -4.820312 15.828125 -3.9375 C 15.972656 -3.726562 16.109375 -3.484375 16.234375 -3.203125 C 16.359375 -2.921875 16.394531 -2.644531 16.34375 -2.375 C 16.28125 -2.0625 15.984375 -1.59375 15.453125 -0.96875 C 14.921875 -0.320312 14.460938 -0.175781 14.078125 -0.53125 C 13.960938 -0.632812 13.867188 -0.753906 13.796875 -0.890625 C 13.722656 -1.023438 13.644531 -1.15625 13.5625 -1.28125 C 13.03125 -2.101562 12.476562 -2.8125 11.90625 -3.40625 C 11.320312 -4.007812 10.664062 -4.582031 9.9375 -5.125 C 9.414062 -4.65625 8.894531 -4.148438 8.375 -3.609375 C 8.957031 -3.117188 9.503906 -2.644531 10.015625 -2.1875 C 10.535156 -1.71875 10.878906 -1.390625 11.046875 -1.203125 C 11.390625 -0.785156 11.296875 -0.34375 10.765625 0.125 C 10.234375 0.59375 9.835938 0.847656 9.578125 0.890625 C 9.265625 0.929688 8.789062 0.71875 8.15625 0.25 C 7.507812 -0.226562 6.910156 -0.726562 6.359375 -1.25 C 5.617188 -0.28125 5.039062 0.640625 4.625 1.515625 C 4.5625 1.640625 4.488281 1.785156 4.40625 1.953125 C 4.34375 2.109375 4.265625 2.25 4.171875 2.375 C 3.972656 2.582031 3.71875 2.628906 3.40625 2.515625 C 3.113281 2.398438 2.816406 2.21875 2.515625 1.96875 C 2.222656 1.707031 1.960938 1.425781 1.734375 1.125 C 1.492188 0.800781 1.347656 0.554688 1.296875 0.390625 C 1.179688 0.078125 1.179688 -0.234375 1.296875 -0.546875 C 1.398438 -0.878906 1.519531 -1.179688 1.65625 -1.453125 C 1.914062 -1.960938 2.3125 -2.5625 2.84375 -3.25 C 3.351562 -3.925781 3.914062 -4.609375 4.53125 -5.296875 C 5.15625 -5.960938 5.785156 -6.578125 6.421875 -7.140625 C 7.046875 -7.710938 7.582031 -8.144531 8.03125 -8.4375 C 8.445312 -8.6875 8.816406 -8.859375 9.140625 -8.953125 C 9.390625 -9.015625 9.617188 -9 9.828125 -8.90625 C 9.960938 -8.851562 10.09375 -8.789062 10.21875 -8.71875 C 10.34375 -8.632812 10.472656 -8.5625 10.609375 -8.5 Z M 10.609375 -8.5 "/></g></g></g><g fill="#25754a" fill-opacity="1"><g transform="translate(19.415286, 25.884942)"><g><path d="M 7.203125 -4.65625 C 8.035156 -4.632812 8.710938 -4.445312 9.234375 -4.09375 C 9.734375 -3.726562 10.03125 -3.332031 10.125 -2.90625 C 10.21875 -2.476562 10.015625 -2.09375 9.515625 -1.75 C 9.015625 -1.40625 8.609375 -1.398438 8.296875 -1.734375 C 7.984375 -2.046875 7.585938 -2.253906 7.109375 -2.359375 C 6.628906 -2.460938 6.140625 -2.210938 5.640625 -1.609375 C 5.140625 -1.015625 4.71875 -0.1875 4.375 0.875 C 4.320312 1.007812 4.273438 1.148438 4.234375 1.296875 C 4.179688 1.453125 4.117188 1.59375 4.046875 1.71875 C 3.898438 1.96875 3.695312 2.070312 3.4375 2.03125 C 3.164062 1.988281 2.890625 1.882812 2.609375 1.71875 C 2.328125 1.5625 2.070312 1.375 1.84375 1.15625 C 1.625 0.925781 1.472656 0.742188 1.390625 0.609375 C 1.285156 0.335938 1.265625 0.0546875 1.328125 -0.234375 C 1.378906 -0.546875 1.445312 -0.832031 1.53125 -1.09375 C 1.71875 -1.613281 2.003906 -2.234375 2.390625 -2.953125 C 2.773438 -3.671875 3.128906 -4.273438 3.453125 -4.765625 C 3.785156 -5.273438 4.09375 -5.695312 4.375 -6.03125 C 4.644531 -6.375 4.910156 -6.617188 5.171875 -6.765625 C 5.378906 -6.859375 5.570312 -6.894531 5.75 -6.875 C 5.976562 -6.84375 6.210938 -6.753906 6.453125 -6.609375 C 6.679688 -6.484375 6.882812 -6.347656 7.0625 -6.203125 C 7.300781 -6.003906 7.457031 -5.789062 7.53125 -5.5625 C 7.59375 -5.34375 7.488281 -5.066406 7.21875 -4.734375 Z M 7.203125 -4.65625 "/></g></g></g><g fill="#25754a" fill-opacity="1"><g transform="translate(27.966709, 31.432307)"><g><path d="M 3.03125 -4.171875 C 3.675781 -4.617188 4.28125 -4.921875 4.84375 -5.078125 C 5.0625 -5.148438 5.203125 -5.1875 5.265625 -5.1875 C 6.140625 -5.40625 7.007812 -5.40625 7.875 -5.1875 C 8.59375 -5.019531 9.21875 -4.691406 9.75 -4.203125 C 9.976562 -3.972656 10.175781 -3.675781 10.34375 -3.3125 C 10.519531 -2.945312 10.613281 -2.585938 10.625 -2.234375 C 10.613281 -1.847656 10.503906 -1.421875 10.296875 -0.953125 C 10.003906 -0.242188 9.625 0.332031 9.15625 0.78125 C 8.875 1.039062 8.546875 1.265625 8.171875 1.453125 C 7.796875 1.648438 7.429688 1.816406 7.078125 1.953125 C 6.546875 2.117188 5.988281 2.21875 5.40625 2.25 C 4.84375 2.269531 4.296875 2.171875 3.765625 1.953125 C 3.234375 1.710938 2.78125 1.390625 2.40625 0.984375 C 2.09375 0.671875 1.84375 0.320312 1.65625 -0.0625 C 1.457031 -0.445312 1.367188 -0.859375 1.390625 -1.296875 C 1.398438 -1.710938 1.519531 -2.15625 1.75 -2.625 C 2.050781 -3.269531 2.476562 -3.785156 3.03125 -4.171875 Z M 4.484375 -2.03125 C 4.304688 -1.707031 4.316406 -1.269531 4.515625 -0.71875 C 4.679688 -0.164062 5.007812 0.113281 5.5 0.125 C 5.800781 0.144531 6.039062 0.0625 6.21875 -0.125 C 6.382812 -0.3125 6.488281 -0.539062 6.53125 -0.8125 C 6.65625 -1.4375 6.4375 -1.96875 5.875 -2.40625 C 5.300781 -2.832031 4.835938 -2.707031 4.484375 -2.03125 Z M 4.484375 -2.03125 "/></g></g></g><g fill="#25754a" fill-opacity="1"><g transform="translate(38.915391, 37.05887)"><g><path d="M 6.53125 -5.828125 C 6.882812 -5.929688 7.316406 -5.910156 7.828125 -5.765625 C 8.316406 -5.628906 8.753906 -5.28125 9.140625 -4.71875 C 9.554688 -4.125 9.796875 -3.46875 9.859375 -2.75 C 9.898438 -2.019531 9.851562 -1.316406 9.71875 -0.640625 C 9.613281 -0.171875 9.441406 0.453125 9.203125 1.234375 C 8.941406 2.035156 8.625 2.609375 8.25 2.953125 C 8.113281 3.066406 7.96875 3.109375 7.8125 3.078125 C 7.539062 3.015625 7.242188 2.851562 6.921875 2.59375 C 6.609375 2.332031 6.40625 2.109375 6.3125 1.921875 C 6.269531 1.847656 6.25 1.769531 6.25 1.6875 C 6.257812 1.570312 6.296875 1.457031 6.359375 1.34375 C 6.421875 1.238281 6.476562 1.132812 6.53125 1.03125 C 6.769531 0.675781 6.957031 0.269531 7.09375 -0.1875 C 7.238281 -0.632812 7.335938 -1.066406 7.390625 -1.484375 C 7.429688 -1.753906 7.429688 -2.007812 7.390625 -2.25 C 7.285156 -2.90625 7.003906 -3.296875 6.546875 -3.421875 C 6.109375 -3.546875 5.617188 -3.207031 5.078125 -2.40625 C 4.785156 -1.925781 4.546875 -1.144531 4.359375 -0.0625 C 4.328125 0.0703125 4.300781 0.21875 4.28125 0.375 C 4.25 0.53125 4.207031 0.675781 4.15625 0.8125 C 4.03125 1.0625 3.832031 1.191406 3.5625 1.203125 C 3.289062 1.210938 3 1.171875 2.6875 1.078125 C 2.375 0.972656 2.082031 0.832031 1.8125 0.65625 C 1.550781 0.488281 1.375 0.34375 1.28125 0.21875 C 1.132812 -0.0078125 1.066406 -0.269531 1.078125 -0.5625 C 1.097656 -0.863281 1.132812 -1.148438 1.1875 -1.421875 C 1.300781 -1.953125 1.5 -2.597656 1.78125 -3.359375 C 2.070312 -4.117188 2.289062 -4.660156 2.4375 -4.984375 C 2.570312 -5.304688 2.753906 -5.671875 2.984375 -6.078125 C 3.171875 -6.492188 3.53125 -6.972656 4.0625 -7.515625 C 4.257812 -7.660156 4.453125 -7.734375 4.640625 -7.734375 C 4.878906 -7.742188 5.128906 -7.703125 5.390625 -7.609375 C 5.648438 -7.535156 5.878906 -7.445312 6.078125 -7.34375 C 6.347656 -7.195312 6.53125 -7.023438 6.625 -6.828125 C 6.738281 -6.617188 6.675781 -6.335938 6.4375 -5.984375 Z M 6.53125 -5.828125 "/></g></g></g><g fill="#25754a" fill-opacity="1"><g transform="translate(50.548774, 41.518893)"><g><path d="M 4.8125 -8.03125 C 4.832031 -8.101562 4.851562 -8.175781 4.875 -8.25 C 5.09375 -8.882812 5.289062 -9.359375 5.46875 -9.671875 C 5.632812 -9.972656 5.832031 -10.222656 6.0625 -10.421875 C 6.25 -10.585938 6.457031 -10.6875 6.6875 -10.71875 C 6.925781 -10.726562 7.15625 -10.710938 7.375 -10.671875 C 7.601562 -10.617188 7.835938 -10.546875 8.078125 -10.453125 C 8.421875 -10.316406 8.675781 -10.15625 8.84375 -9.96875 C 9.007812 -9.757812 9 -9.457031 8.8125 -9.0625 C 8.550781 -8.269531 8.332031 -7.617188 8.15625 -7.109375 C 8.269531 -7.066406 8.390625 -7.019531 8.515625 -6.96875 C 8.816406 -6.863281 9.113281 -6.726562 9.40625 -6.5625 C 9.539062 -6.457031 9.6875 -6.3125 9.84375 -6.125 C 9.957031 -6 10.019531 -5.816406 10.03125 -5.578125 C 10.039062 -5.203125 9.945312 -4.882812 9.75 -4.625 C 9.550781 -4.363281 9.257812 -4.257812 8.875 -4.3125 C 8.488281 -4.34375 8.019531 -4.457031 7.46875 -4.65625 L 7.453125 -4.59375 C 6.898438 -3.144531 6.65625 -2.15625 6.71875 -1.625 C 6.800781 -1.082031 7.046875 -0.625 7.453125 -0.25 C 7.847656 0.144531 7.894531 0.613281 7.59375 1.15625 C 7.269531 1.707031 6.738281 1.925781 6 1.8125 C 5.25 1.707031 4.617188 1.289062 4.109375 0.5625 C 3.609375 -0.15625 3.390625 -1.039062 3.453125 -2.09375 C 3.515625 -3.144531 3.703125 -4.28125 4.015625 -5.5 L 4.078125 -5.71875 C 3.722656 -5.789062 3.363281 -5.882812 3 -6 C 2.882812 -6.019531 2.8125 -6.035156 2.78125 -6.046875 C 2.71875 -6.066406 2.65625 -6.09375 2.59375 -6.125 C 2.539062 -6.164062 2.5 -6.210938 2.46875 -6.265625 C 2.445312 -6.316406 2.429688 -6.390625 2.421875 -6.484375 C 2.429688 -6.828125 2.476562 -7.109375 2.5625 -7.328125 C 2.632812 -7.523438 2.710938 -7.695312 2.796875 -7.84375 C 2.890625 -8.007812 3.082031 -8.109375 3.375 -8.140625 C 3.53125 -8.148438 3.71875 -8.144531 3.9375 -8.125 C 4.070312 -8.125 4.269531 -8.109375 4.53125 -8.078125 C 4.601562 -8.078125 4.695312 -8.0625 4.8125 -8.03125 Z M 4.8125 -8.03125 "/></g></g></g><g fill="#25754a" fill-opacity="1"><g transform="translate(61.867486, 44.594759)"><g><path d="M 4.3125 -3 C 4.125 -2.9375 4.035156 -2.859375 4.046875 -2.765625 C 4.273438 -2.171875 4.59375 -1.742188 5 -1.484375 C 5.394531 -1.222656 5.882812 -1.078125 6.46875 -1.046875 C 6.914062 -1.003906 7.484375 -1.132812 8.171875 -1.4375 C 8.847656 -1.738281 9.363281 -1.644531 9.71875 -1.15625 C 10.070312 -0.625 9.914062 -0.164062 9.25 0.21875 C 8.582031 0.601562 8.066406 0.835938 7.703125 0.921875 C 7.335938 1.003906 6.941406 1.035156 6.515625 1.015625 C 6.097656 0.984375 5.691406 0.910156 5.296875 0.796875 C 4.753906 0.648438 4.25 0.4375 3.78125 0.15625 C 3.40625 -0.0507812 3.0625 -0.316406 2.75 -0.640625 C 2.425781 -0.960938 2.160156 -1.332031 1.953125 -1.75 C 1.535156 -2.507812 1.3125 -3.320312 1.28125 -4.1875 C 1.332031 -5.488281 1.835938 -6.515625 2.796875 -7.265625 C 3.328125 -7.617188 3.894531 -7.851562 4.5 -7.96875 C 5.113281 -8.082031 5.820312 -8.128906 6.625 -8.109375 C 7.445312 -8.066406 8.234375 -7.765625 8.984375 -7.203125 C 9.734375 -6.648438 10.132812 -5.925781 10.1875 -5.03125 C 10.226562 -4.125 10.164062 -3.523438 10 -3.234375 C 9.8125 -2.941406 9.554688 -2.773438 9.234375 -2.734375 C 8.921875 -2.691406 7.28125 -2.78125 4.3125 -3 Z M 6.75 -5.828125 C 6.019531 -6.003906 5.472656 -5.96875 5.109375 -5.71875 C 4.742188 -5.488281 4.5 -5.28125 4.375 -5.09375 C 4.34375 -5.0625 4.351562 -5 4.40625 -4.90625 C 4.457031 -4.820312 5.640625 -4.738281 7.953125 -4.65625 C 7.859375 -5.257812 7.457031 -5.648438 6.75 -5.828125 Z M 6.75 -5.828125 "/></g></g></g><g fill="#25754a" fill-opacity="1"><g transform="translate(75.0236, 46.622972)"><g><path d="M 4.328125 -7.609375 C 4.628906 -7.816406 5.039062 -7.9375 5.5625 -7.96875 C 6.082031 -7.988281 6.613281 -7.796875 7.15625 -7.390625 C 7.738281 -6.960938 8.171875 -6.410156 8.453125 -5.734375 C 8.734375 -5.054688 8.914062 -4.378906 9 -3.703125 C 9.0625 -3.234375 9.097656 -2.585938 9.109375 -1.765625 C 9.128906 -0.921875 9.007812 -0.28125 8.75 0.15625 C 8.664062 0.3125 8.539062 0.398438 8.375 0.421875 C 8.101562 0.453125 7.773438 0.394531 7.390625 0.25 C 6.992188 0.09375 6.726562 -0.0507812 6.59375 -0.1875 C 6.53125 -0.25 6.488281 -0.316406 6.46875 -0.390625 C 6.425781 -0.503906 6.421875 -0.625 6.453125 -0.75 C 6.472656 -0.875 6.492188 -0.992188 6.515625 -1.109375 C 6.628906 -1.515625 6.675781 -1.960938 6.65625 -2.453125 C 6.65625 -2.921875 6.613281 -3.359375 6.53125 -3.765625 C 6.46875 -4.046875 6.382812 -4.285156 6.28125 -4.484375 C 5.96875 -5.066406 5.582031 -5.347656 5.125 -5.328125 C 4.664062 -5.296875 4.304688 -4.820312 4.046875 -3.90625 C 3.929688 -3.363281 3.953125 -2.550781 4.109375 -1.46875 C 4.128906 -1.320312 4.148438 -1.171875 4.171875 -1.015625 C 4.203125 -0.859375 4.210938 -0.707031 4.203125 -0.5625 C 4.160156 -0.28125 4.015625 -0.09375 3.765625 0 C 3.503906 0.101562 3.210938 0.15625 2.890625 0.15625 C 2.566406 0.164062 2.25 0.128906 1.9375 0.046875 C 1.632812 -0.0351562 1.421875 -0.113281 1.296875 -0.1875 C 1.078125 -0.363281 0.925781 -0.59375 0.84375 -0.875 C 0.769531 -1.175781 0.710938 -1.460938 0.671875 -1.734375 C 0.609375 -2.265625 0.59375 -2.941406 0.625 -3.765625 C 0.65625 -4.566406 0.6875 -5.144531 0.71875 -5.5 C 0.75 -5.84375 0.800781 -6.242188 0.875 -6.703125 C 0.9375 -7.160156 1.128906 -7.734375 1.453125 -8.421875 C 1.597656 -8.617188 1.757812 -8.75 1.9375 -8.8125 C 2.164062 -8.894531 2.414062 -8.9375 2.6875 -8.9375 C 2.957031 -8.945312 3.203125 -8.9375 3.421875 -8.90625 C 3.722656 -8.84375 3.957031 -8.734375 4.125 -8.578125 C 4.289062 -8.421875 4.316406 -8.132812 4.203125 -7.71875 Z M 4.328125 -7.609375 "/></g></g></g><g fill="#25754a" fill-opacity="1"><g transform="translate(87.521551, 47.176995)"><g><path d="M 3.078125 -4.359375 C 3.097656 -3.941406 3.359375 -3.515625 3.859375 -3.078125 C 4.359375 -2.660156 4.835938 -2.585938 5.296875 -2.859375 C 5.597656 -3.023438 5.773438 -3.25 5.828125 -3.53125 C 5.878906 -3.8125 5.847656 -4.101562 5.734375 -4.40625 C 5.609375 -4.738281 5.390625 -5.003906 5.078125 -5.203125 C 4.773438 -5.398438 4.476562 -5.507812 4.1875 -5.53125 C 3.882812 -5.539062 3.617188 -5.457031 3.390625 -5.28125 C 3.160156 -5.101562 3.054688 -4.796875 3.078125 -4.359375 Z M 6.796875 -1.34375 C 6.597656 -1.175781 6.390625 -1.015625 6.171875 -0.859375 C 5.679688 -0.546875 5.148438 -0.335938 4.578125 -0.234375 C 3.984375 -0.148438 3.40625 -0.1875 2.84375 -0.34375 C 2.414062 -0.46875 2.015625 -0.65625 1.640625 -0.90625 C 1.265625 -1.144531 0.960938 -1.460938 0.734375 -1.859375 C 0.523438 -2.242188 0.394531 -2.703125 0.34375 -3.234375 C 0.269531 -3.992188 0.375 -4.691406 0.65625 -5.328125 C 0.800781 -5.640625 0.960938 -5.953125 1.140625 -6.265625 C 1.316406 -6.554688 1.523438 -6.835938 1.765625 -7.109375 C 1.867188 -7.222656 1.972656 -7.335938 2.078125 -7.453125 C 2.734375 -8.109375 3.492188 -8.570312 4.359375 -8.84375 C 5.023438 -9.070312 5.679688 -9.132812 6.328125 -9.03125 C 6.128906 -11.007812 6.054688 -12.046875 6.109375 -12.140625 C 6.191406 -12.328125 6.304688 -12.453125 6.453125 -12.515625 C 6.617188 -12.609375 6.820312 -12.664062 7.0625 -12.6875 C 7.300781 -12.707031 7.515625 -12.710938 7.703125 -12.703125 C 7.972656 -12.691406 8.191406 -12.640625 8.359375 -12.546875 C 8.515625 -12.421875 8.59375 -11.742188 8.59375 -10.515625 C 8.6875 -8.390625 8.800781 -6.640625 8.9375 -5.265625 C 9.0625 -3.878906 9.316406 -2.664062 9.703125 -1.625 C 9.742188 -1.507812 9.785156 -1.398438 9.828125 -1.296875 C 9.878906 -1.171875 9.910156 -1.050781 9.921875 -0.9375 C 9.941406 -0.71875 9.847656 -0.554688 9.640625 -0.453125 C 9.429688 -0.347656 9.191406 -0.28125 8.921875 -0.25 C 8.640625 -0.226562 8.363281 -0.234375 8.09375 -0.265625 C 7.8125 -0.296875 7.613281 -0.335938 7.5 -0.390625 C 7.28125 -0.492188 7.113281 -0.65625 7 -0.875 C 6.914062 -1.03125 6.847656 -1.1875 6.796875 -1.34375 Z M 6.796875 -1.34375 "/></g></g></g><g fill="#25754a" fill-opacity="1"><g transform="translate(100.824662, 46.158587)"><g/></g></g></g></g><g transform="matrix(1, 0, 0, 1, 6, 92)"><g clip-path="url(#59a36134cf)"><g fill="#3d98d6" fill-opacity="1"><g transform="translate(0.770159, 130.758422)"><g><path d="M 57.546875 -62.390625 C 60.367188 -70.472656 62.957031 -76.316406 65.3125 -79.921875 C 66.226562 -81.242188 67.179688 -82.570312 68.171875 -83.90625 C 69.171875 -85.226562 70.207031 -86.425781 71.28125 -87.5 C 71.820312 -88 72.363281 -88.4375 72.90625 -88.8125 C 73.6875 -89.394531 75.050781 -89.992188 77 -90.609375 C 78.65625 -90.984375 80.519531 -91.273438 82.59375 -91.484375 C 84.625 -91.648438 86.488281 -91.503906 88.1875 -91.046875 C 89.59375 -90.671875 90.921875 -89.800781 92.171875 -88.4375 C 93.828125 -86.570312 95.359375 -84.148438 96.765625 -81.171875 C 98.503906 -77.734375 100.285156 -73.175781 102.109375 -67.5 C 103.890625 -61.820312 105.523438 -55.875 107.015625 -49.65625 C 108.472656 -43.4375 109.675781 -37.390625 110.625 -31.515625 C 111.539062 -25.585938 111.9375 -20.675781 111.8125 -16.78125 C 111.8125 -14.789062 111.625 -12.695312 111.25 -10.5 C 110.832031 -8.257812 109.878906 -6.5 108.390625 -5.21875 C 106.691406 -3.726562 102.816406 -2.460938 96.765625 -1.421875 C 90.671875 -0.347656 87.171875 -1.800781 86.265625 -5.78125 C 86.054688 -6.851562 85.992188 -7.972656 86.078125 -9.140625 C 86.160156 -10.253906 86.203125 -11.351562 86.203125 -12.4375 C 86.453125 -19.644531 85.890625 -27.578125 84.515625 -36.234375 C 83.148438 -44.847656 81.867188 -50.832031 80.671875 -54.1875 C 79.460938 -57.550781 77.742188 -56.394531 75.515625 -50.71875 C 73.273438 -45.039062 71.453125 -38.597656 70.046875 -31.390625 C 68.585938 -24.140625 67.53125 -19.414062 66.875 -17.21875 C 66.207031 -14.976562 63.015625 -13.859375 57.296875 -13.859375 C 51.578125 -13.816406 48.367188 -14.914062 47.671875 -17.15625 C 46.960938 -19.351562 45.675781 -24.160156 43.8125 -31.578125 C 41.945312 -38.953125 40.1875 -45.375 38.53125 -50.84375 C 36.832031 -56.3125 35.363281 -57.363281 34.125 -54 C 32.875 -50.601562 31.546875 -44.578125 30.140625 -35.921875 C 28.734375 -27.265625 28.175781 -19.332031 28.46875 -12.125 C 28.425781 -11.039062 28.46875 -9.941406 28.59375 -8.828125 C 28.675781 -7.660156 28.59375 -6.539062 28.34375 -5.46875 C 27.425781 -1.488281 23.820312 0 17.53125 -1 C 11.226562 -1.988281 7.1875 -3.226562 5.40625 -4.71875 C 3.832031 -5.96875 2.835938 -7.707031 2.421875 -9.9375 C 2.003906 -12.132812 1.796875 -14.226562 1.796875 -16.21875 C 1.710938 -20.113281 2.148438 -25.023438 3.109375 -30.953125 C 4.054688 -36.878906 5.300781 -42.945312 6.84375 -49.15625 C 8.375 -55.375 10.09375 -61.34375 12 -67.0625 C 13.863281 -72.738281 15.6875 -77.316406 17.46875 -80.796875 C 18.914062 -83.773438 20.488281 -86.195312 22.1875 -88.0625 C 23.46875 -89.46875 24.875 -90.359375 26.40625 -90.734375 C 28.15625 -91.191406 30.101562 -91.335938 32.25 -91.171875 C 34.363281 -91.003906 36.269531 -90.753906 37.96875 -90.421875 C 40 -89.804688 41.410156 -89.226562 42.203125 -88.6875 C 42.773438 -88.3125 43.351562 -87.875 43.9375 -87.375 C 45.019531 -86.300781 46.078125 -85.125 47.109375 -83.84375 C 48.140625 -82.507812 49.15625 -81.179688 50.15625 -79.859375 C 52.644531 -76.171875 55.109375 -70.347656 57.546875 -62.390625 Z M 57.546875 -62.390625 "/></g></g></g></g></g><g fill="#25754a" fill-opacity="1"><g transform="translate(209.028651, 272.633347)"><g><path d="M 8.90625 -1.078125 C 8.113281 -0.148438 7.472656 0.492188 6.984375 0.859375 C 6.796875 0.972656 6.601562 1.097656 6.40625 1.234375 C 6.207031 1.347656 6.007812 1.453125 5.8125 1.546875 C 5.726562 1.585938 5.632812 1.617188 5.53125 1.640625 C 5.40625 1.671875 5.195312 1.679688 4.90625 1.671875 C 4.664062 1.648438 4.40625 1.59375 4.125 1.5 C 3.84375 1.414062 3.597656 1.304688 3.390625 1.171875 C 3.234375 1.046875 3.109375 0.859375 3.015625 0.609375 C 2.878906 0.285156 2.796875 -0.101562 2.765625 -0.5625 C 2.703125 -1.113281 2.703125 -1.804688 2.765625 -2.640625 C 2.804688 -3.492188 2.882812 -4.363281 3 -5.25 C 3.125 -6.132812 3.273438 -6.992188 3.453125 -7.828125 C 3.617188 -8.660156 3.8125 -9.328125 4.03125 -9.828125 C 4.125 -10.097656 4.253906 -10.363281 4.421875 -10.625 C 4.578125 -10.90625 4.789062 -11.09375 5.0625 -11.1875 C 5.363281 -11.3125 5.941406 -11.285156 6.796875 -11.109375 C 7.648438 -10.953125 8.039062 -10.582031 7.96875 -10 C 7.925781 -9.851562 7.867188 -9.703125 7.796875 -9.546875 C 7.742188 -9.398438 7.691406 -9.257812 7.640625 -9.125 C 7.234375 -8.1875 6.898438 -7.113281 6.640625 -5.90625 C 6.398438 -4.695312 6.222656 -3.472656 6.109375 -2.234375 C 7.128906 -3.128906 7.921875 -4.066406 8.484375 -5.046875 C 9.265625 -6.441406 9.757812 -7.269531 9.96875 -7.53125 C 10.164062 -7.789062 10.640625 -7.78125 11.390625 -7.5 C 12.148438 -7.21875 12.515625 -6.914062 12.484375 -6.59375 C 12.460938 -6.25 12.285156 -5.300781 11.953125 -3.75 C 11.804688 -2.550781 11.753906 -1.335938 11.796875 -0.109375 C 12.535156 -1.085938 13.222656 -2.113281 13.859375 -3.1875 C 14.472656 -4.257812 14.941406 -5.28125 15.265625 -6.25 C 15.328125 -6.394531 15.382812 -6.546875 15.4375 -6.703125 C 15.46875 -6.859375 15.53125 -6.992188 15.625 -7.109375 C 15.945312 -7.597656 16.5 -7.617188 17.28125 -7.171875 C 18.070312 -6.722656 18.539062 -6.351562 18.6875 -6.0625 C 18.84375 -5.820312 18.882812 -5.546875 18.8125 -5.234375 C 18.757812 -4.921875 18.6875 -4.632812 18.59375 -4.375 C 18.414062 -3.851562 18.109375 -3.222656 17.671875 -2.484375 C 17.234375 -1.742188 16.765625 -1.003906 16.265625 -0.265625 C 15.742188 0.472656 15.21875 1.171875 14.6875 1.828125 C 14.15625 2.484375 13.679688 3 13.265625 3.375 C 12.921875 3.6875 12.585938 3.929688 12.265625 4.109375 C 12.023438 4.222656 11.796875 4.265625 11.578125 4.234375 C 11.328125 4.222656 11.066406 4.144531 10.796875 4 C 10.523438 3.875 10.285156 3.75 10.078125 3.625 C 9.835938 3.4375 9.675781 3.28125 9.59375 3.15625 C 9.539062 3.09375 9.488281 3.015625 9.4375 2.921875 C 9.332031 2.710938 9.25 2.492188 9.1875 2.265625 C 9.113281 2.035156 9.050781 1.8125 9 1.59375 C 8.851562 0.988281 8.820312 0.0976562 8.90625 -1.078125 Z M 8.90625 -1.078125 "/></g></g></g><g fill="#25754a" fill-opacity="1"><g transform="translate(227.171386, 279.189445)"><g><path d="M 4.484375 -2.734375 C 4.285156 -2.679688 4.191406 -2.609375 4.203125 -2.515625 C 4.390625 -1.910156 4.675781 -1.46875 5.0625 -1.1875 C 5.445312 -0.90625 5.929688 -0.726562 6.515625 -0.65625 C 6.960938 -0.59375 7.535156 -0.691406 8.234375 -0.953125 C 8.941406 -1.210938 9.453125 -1.078125 9.765625 -0.546875 C 10.085938 -0.015625 9.90625 0.421875 9.21875 0.765625 C 8.53125 1.109375 8 1.316406 7.625 1.390625 C 7.257812 1.441406 6.863281 1.441406 6.4375 1.390625 C 6.019531 1.335938 5.617188 1.242188 5.234375 1.109375 C 4.703125 0.929688 4.210938 0.691406 3.765625 0.390625 C 3.398438 0.140625 3.070312 -0.148438 2.78125 -0.484375 C 2.476562 -0.816406 2.234375 -1.203125 2.046875 -1.640625 C 1.679688 -2.421875 1.515625 -3.242188 1.546875 -4.109375 C 1.660156 -5.398438 2.210938 -6.390625 3.203125 -7.078125 C 3.765625 -7.398438 4.351562 -7.601562 4.96875 -7.6875 C 5.582031 -7.757812 6.289062 -7.757812 7.09375 -7.6875 C 7.914062 -7.601562 8.679688 -7.257812 9.390625 -6.65625 C 10.109375 -6.050781 10.46875 -5.300781 10.46875 -4.40625 C 10.457031 -3.507812 10.359375 -2.914062 10.171875 -2.625 C 9.960938 -2.34375 9.703125 -2.195312 9.390625 -2.1875 C 9.054688 -2.164062 7.421875 -2.347656 4.484375 -2.734375 Z M 7.078125 -5.421875 C 6.359375 -5.640625 5.8125 -5.632812 5.4375 -5.40625 C 5.050781 -5.1875 4.789062 -4.992188 4.65625 -4.828125 C 4.625 -4.804688 4.632812 -4.742188 4.6875 -4.640625 C 4.726562 -4.554688 5.90625 -4.398438 8.21875 -4.171875 C 8.15625 -4.773438 7.773438 -5.191406 7.078125 -5.421875 Z M 7.078125 -5.421875 "/></g></g></g><g fill="#25754a" fill-opacity="1"><g transform="translate(240.163364, 282.01123)"><g><path d="M 7.125 -4.625 C 6.90625 -4.820312 6.644531 -4.921875 6.34375 -4.921875 C 6.039062 -4.910156 5.734375 -4.816406 5.421875 -4.640625 C 5.085938 -4.441406 4.851562 -4.179688 4.71875 -3.859375 C 4.59375 -3.554688 4.546875 -3.273438 4.578125 -3.015625 C 4.609375 -2.722656 4.773438 -2.488281 5.078125 -2.3125 C 5.523438 -2 6.007812 -2.046875 6.53125 -2.453125 C 7.050781 -2.835938 7.332031 -3.242188 7.375 -3.671875 C 7.425781 -4.109375 7.34375 -4.425781 7.125 -4.625 Z M 3.265625 -0.4375 C 3.128906 -0.21875 2.953125 -0.0546875 2.734375 0.046875 C 2.617188 0.0859375 2.425781 0.117188 2.15625 0.140625 C 1.863281 0.148438 1.582031 0.132812 1.3125 0.09375 C 1.050781 0.0507812 0.820312 -0.03125 0.625 -0.15625 C 0.414062 -0.269531 0.328125 -0.429688 0.359375 -0.640625 C 0.378906 -0.765625 0.414062 -0.878906 0.46875 -0.984375 C 0.519531 -1.109375 0.566406 -1.21875 0.609375 -1.3125 C 1.066406 -2.34375 1.398438 -3.546875 1.609375 -4.921875 C 1.804688 -6.285156 1.9375 -8.039062 2 -10.1875 C 1.945312 -11.425781 2.007812 -12.09375 2.1875 -12.1875 C 2.351562 -12.289062 2.570312 -12.34375 2.84375 -12.34375 C 3.03125 -12.34375 3.242188 -12.320312 3.484375 -12.28125 C 3.710938 -12.238281 3.90625 -12.171875 4.0625 -12.078125 C 4.207031 -11.992188 4.316406 -11.863281 4.390625 -11.6875 C 4.441406 -11.582031 4.445312 -10.523438 4.40625 -8.515625 C 5.039062 -8.597656 5.691406 -8.503906 6.359375 -8.234375 C 7.203125 -7.910156 7.929688 -7.398438 8.546875 -6.703125 C 8.640625 -6.597656 8.738281 -6.484375 8.84375 -6.359375 C 9.070312 -6.078125 9.257812 -5.78125 9.40625 -5.46875 C 9.570312 -5.164062 9.710938 -4.847656 9.828125 -4.515625 C 10.078125 -3.859375 10.140625 -3.148438 10.015625 -2.390625 C 9.929688 -1.859375 9.773438 -1.410156 9.546875 -1.046875 C 9.304688 -0.671875 9 -0.367188 8.625 -0.140625 C 8.226562 0.078125 7.8125 0.234375 7.375 0.328125 C 6.8125 0.453125 6.238281 0.457031 5.65625 0.34375 C 5.070312 0.21875 4.546875 -0.0195312 4.078125 -0.375 C 3.867188 -0.53125 3.675781 -0.691406 3.5 -0.859375 C 3.425781 -0.722656 3.347656 -0.582031 3.265625 -0.4375 Z M 3.265625 -0.4375 "/></g></g></g><g fill="#25754a" fill-opacity="1"><g transform="translate(253.078967, 283.219741)"><g/></g></g><g fill="#25754a" fill-opacity="1"><g transform="translate(260.644037, 283.4857)"><g><path d="M -0.03125 -12.71875 C 0.0703125 -13.175781 0.316406 -13.4375 0.703125 -13.5 C 1.828125 -13.644531 2.96875 -13.710938 4.125 -13.703125 C 5.269531 -13.679688 6.429688 -13.421875 7.609375 -12.921875 C 8.941406 -12.347656 10.03125 -11.566406 10.875 -10.578125 C 11.601562 -9.703125 12.097656 -8.734375 12.359375 -7.671875 C 12.535156 -6.898438 12.460938 -6.125 12.140625 -5.34375 C 11.816406 -4.550781 11.445312 -3.878906 11.03125 -3.328125 C 10.550781 -2.722656 9.992188 -2.222656 9.359375 -1.828125 C 8.703125 -1.410156 7.976562 -1.109375 7.1875 -0.921875 C 6.195312 -0.671875 5.164062 -0.554688 4.09375 -0.578125 C 3.007812 -0.585938 1.941406 -0.617188 0.890625 -0.671875 C 0.554688 -0.679688 0.328125 -0.757812 0.203125 -0.90625 C 0.0859375 -1.0625 0.015625 -1.253906 -0.015625 -1.484375 C -0.191406 -3.054688 -0.320312 -4.957031 -0.40625 -7.1875 C -0.476562 -9.425781 -0.351562 -11.269531 -0.03125 -12.71875 Z M 8.46875 -7.40625 C 8.40625 -7.84375 8.097656 -8.238281 7.546875 -8.59375 C 7.347656 -8.707031 7.117188 -8.820312 6.859375 -8.9375 C 6.140625 -9.226562 5.398438 -9.390625 4.640625 -9.421875 C 4.441406 -9.441406 4.253906 -9.4375 4.078125 -9.40625 C 3.867188 -9.382812 3.703125 -9.304688 3.578125 -9.171875 C 3.503906 -9.097656 3.457031 -8.867188 3.4375 -8.484375 C 3.40625 -8.085938 3.390625 -7.664062 3.390625 -7.21875 C 3.367188 -6.75 3.375 -6.3125 3.40625 -5.90625 C 3.425781 -5.507812 3.453125 -5.273438 3.484375 -5.203125 C 3.515625 -5.160156 3.546875 -5.128906 3.578125 -5.109375 C 3.898438 -4.972656 4.257812 -4.878906 4.65625 -4.828125 C 5.039062 -4.785156 5.414062 -4.785156 5.78125 -4.828125 C 6.257812 -4.890625 6.769531 -5.023438 7.3125 -5.234375 C 7.851562 -5.441406 8.195312 -5.773438 8.34375 -6.234375 C 8.476562 -6.617188 8.519531 -7.007812 8.46875 -7.40625 Z M 8.46875 -7.40625 "/></g></g></g><g fill="#25754a" fill-opacity="1"><g transform="translate(277.577828, 281.761948)"><g><path d="M 2.890625 -4.390625 C 2.734375 -4.253906 2.679688 -4.148438 2.734375 -4.078125 C 3.160156 -3.609375 3.609375 -3.328125 4.078125 -3.234375 C 4.546875 -3.140625 5.054688 -3.1875 5.609375 -3.375 C 6.046875 -3.507812 6.523438 -3.847656 7.046875 -4.390625 C 7.566406 -4.921875 8.082031 -5.019531 8.59375 -4.6875 C 9.113281 -4.320312 9.140625 -3.835938 8.671875 -3.234375 C 8.191406 -2.628906 7.800781 -2.21875 7.5 -2 C 7.1875 -1.789062 6.828125 -1.625 6.421875 -1.5 C 6.023438 -1.363281 5.625 -1.273438 5.21875 -1.234375 C 4.65625 -1.160156 4.109375 -1.164062 3.578125 -1.25 C 3.128906 -1.320312 2.703125 -1.441406 2.296875 -1.609375 C 1.890625 -1.796875 1.507812 -2.039062 1.15625 -2.34375 C 0.488281 -2.90625 -0.015625 -3.582031 -0.359375 -4.375 C -0.796875 -5.59375 -0.71875 -6.726562 -0.125 -7.78125 C 0.25 -8.300781 0.691406 -8.726562 1.203125 -9.0625 C 1.734375 -9.40625 2.375 -9.710938 3.125 -9.984375 C 3.90625 -10.265625 4.75 -10.28125 5.65625 -10.03125 C 6.5625 -9.789062 7.207031 -9.265625 7.59375 -8.453125 C 7.957031 -7.640625 8.113281 -7.0625 8.0625 -6.71875 C 8.007812 -6.382812 7.835938 -6.144531 7.546875 -6 C 7.265625 -5.832031 5.710938 -5.296875 2.890625 -4.390625 Z M 4.09375 -7.921875 C 3.351562 -7.816406 2.859375 -7.582031 2.609375 -7.21875 C 2.359375 -6.851562 2.207031 -6.566406 2.15625 -6.359375 C 2.144531 -6.316406 2.175781 -6.265625 2.25 -6.203125 C 2.332031 -6.140625 3.46875 -6.5 5.65625 -7.28125 C 5.332031 -7.800781 4.8125 -8.015625 4.09375 -7.921875 Z M 4.09375 -7.921875 "/></g></g></g><g fill="#25754a" fill-opacity="1"><g transform="translate(290.519711, 278.756806)"><g><path d="M -0.21875 -8.609375 C 0.382812 -7.921875 1.085938 -7.25 1.890625 -6.59375 C 2.691406 -5.914062 3.5 -5.34375 4.3125 -4.875 C 4.332031 -5.78125 4.285156 -6.71875 4.171875 -7.6875 C 4.054688 -8.644531 3.890625 -9.535156 3.671875 -10.359375 C 3.585938 -10.660156 3.601562 -10.878906 3.71875 -11.015625 C 3.851562 -11.117188 4.050781 -11.203125 4.3125 -11.265625 C 4.46875 -11.316406 4.660156 -11.347656 4.890625 -11.359375 C 5.109375 -11.367188 5.300781 -11.347656 5.46875 -11.296875 C 5.625 -11.242188 5.753906 -11.148438 5.859375 -11.015625 C 5.992188 -10.816406 6.128906 -10.566406 6.265625 -10.265625 C 6.515625 -9.535156 6.71875 -8.4375 6.875 -6.96875 C 7.03125 -5.5 7.046875 -4.363281 6.921875 -3.5625 C 6.878906 -3.351562 6.828125 -3.140625 6.765625 -2.921875 C 6.691406 -2.703125 6.570312 -2.523438 6.40625 -2.390625 C 6.082031 -2.171875 5.632812 -2.039062 5.0625 -2 C 4.46875 -1.9375 4 -1.984375 3.65625 -2.140625 C 2.914062 -2.472656 1.976562 -3.101562 0.84375 -4.03125 C -0.28125 -4.957031 -1.070312 -5.726562 -1.53125 -6.34375 C -1.738281 -6.644531 -1.875 -6.894531 -1.9375 -7.09375 C -2.007812 -7.257812 -2.03125 -7.414062 -2 -7.5625 C -1.9375 -7.738281 -1.84375 -7.914062 -1.71875 -8.09375 C -1.582031 -8.269531 -1.453125 -8.425781 -1.328125 -8.5625 C -1.148438 -8.738281 -0.976562 -8.851562 -0.8125 -8.90625 C -0.632812 -8.957031 -0.4375 -8.859375 -0.21875 -8.609375 Z M -0.21875 -8.609375 "/></g></g></g><g fill="#25754a" fill-opacity="1"><g transform="translate(302.615511, 274.477824)"><g><path d="M 1.828125 -4.921875 C 1.710938 -4.753906 1.679688 -4.640625 1.734375 -4.578125 C 2.265625 -4.222656 2.765625 -4.054688 3.234375 -4.078125 C 3.710938 -4.085938 4.203125 -4.242188 4.703125 -4.546875 C 5.097656 -4.785156 5.488281 -5.222656 5.875 -5.859375 C 6.269531 -6.492188 6.753906 -6.703125 7.328125 -6.484375 C 7.921875 -6.253906 8.050781 -5.796875 7.71875 -5.109375 C 7.382812 -4.410156 7.097656 -3.925781 6.859375 -3.65625 C 6.609375 -3.363281 6.296875 -3.109375 5.921875 -2.890625 C 5.566406 -2.679688 5.191406 -2.503906 4.796875 -2.359375 C 4.265625 -2.171875 3.726562 -2.054688 3.1875 -2.015625 C 2.757812 -1.992188 2.320312 -2.019531 1.875 -2.09375 C 1.425781 -2.175781 1 -2.320312 0.59375 -2.53125 C -0.175781 -2.9375 -0.820312 -3.484375 -1.34375 -4.171875 C -2.039062 -5.273438 -2.210938 -6.398438 -1.859375 -7.546875 C -1.628906 -8.140625 -1.296875 -8.660156 -0.859375 -9.109375 C -0.421875 -9.554688 0.132812 -10 0.8125 -10.4375 C 1.507812 -10.875 2.320312 -11.078125 3.25 -11.046875 C 4.195312 -11.015625 4.941406 -10.644531 5.484375 -9.9375 C 6.035156 -9.226562 6.320312 -8.703125 6.34375 -8.359375 C 6.363281 -8.015625 6.253906 -7.738281 6.015625 -7.53125 C 5.773438 -7.3125 4.378906 -6.441406 1.828125 -4.921875 Z M 2.1875 -8.640625 C 1.5 -8.378906 1.078125 -8.035156 0.921875 -7.609375 C 0.753906 -7.203125 0.671875 -6.890625 0.671875 -6.671875 C 0.660156 -6.628906 0.707031 -6.585938 0.8125 -6.546875 C 0.894531 -6.515625 1.910156 -7.125 3.859375 -8.375 C 3.441406 -8.8125 2.882812 -8.898438 2.1875 -8.640625 Z M 2.1875 -8.640625 "/></g></g></g><g fill="#25754a" fill-opacity="1"><g transform="translate(314.395435, 268.637008)"><g><path d="M -2.484375 -11.578125 C -1.898438 -10.203125 -1.140625 -8.773438 -0.203125 -7.296875 C 0.722656 -5.796875 1.691406 -4.554688 2.703125 -3.578125 C 2.796875 -3.472656 2.898438 -3.367188 3.015625 -3.265625 C 3.140625 -3.148438 3.25 -3.03125 3.34375 -2.90625 C 3.476562 -2.664062 3.46875 -2.4375 3.3125 -2.21875 C 3.175781 -2 2.984375 -1.804688 2.734375 -1.640625 C 2.460938 -1.472656 2.1875 -1.332031 1.90625 -1.21875 C 1.613281 -1.125 1.394531 -1.082031 1.25 -1.09375 C 0.976562 -1.101562 0.710938 -1.195312 0.453125 -1.375 C 0.210938 -1.570312 0 -1.769531 -0.1875 -1.96875 C -0.570312 -2.351562 -1 -2.878906 -1.46875 -3.546875 C -1.945312 -4.210938 -2.410156 -4.910156 -2.859375 -5.640625 C -3.296875 -6.390625 -3.695312 -7.113281 -4.0625 -7.8125 C -4.425781 -8.519531 -4.679688 -9.113281 -4.828125 -9.59375 C -4.984375 -10.039062 -5.066406 -10.398438 -5.078125 -10.671875 C -5.085938 -10.921875 -5.046875 -11.117188 -4.953125 -11.265625 C -4.816406 -11.441406 -4.648438 -11.609375 -4.453125 -11.765625 C -4.222656 -11.910156 -4.015625 -12.023438 -3.828125 -12.109375 C -3.546875 -12.222656 -3.289062 -12.265625 -3.0625 -12.234375 C -2.84375 -12.203125 -2.648438 -11.984375 -2.484375 -11.578125 Z M -2.484375 -11.578125 "/></g></g></g><g fill="#25754a" fill-opacity="1"><g transform="translate(320.964886, 264.742977)"><g><path d="M -2.359375 -4.59375 C -2.484375 -5.351562 -2.484375 -6.023438 -2.359375 -6.609375 C -2.316406 -6.828125 -2.285156 -6.972656 -2.265625 -7.046875 C -2.066406 -7.910156 -1.679688 -8.679688 -1.109375 -9.359375 C -0.628906 -9.929688 -0.0546875 -10.335938 0.609375 -10.578125 C 0.929688 -10.691406 1.289062 -10.742188 1.6875 -10.734375 C 2.101562 -10.722656 2.46875 -10.640625 2.78125 -10.484375 C 3.125 -10.304688 3.457031 -10.019531 3.78125 -9.625 C 4.269531 -9.050781 4.609375 -8.453125 4.796875 -7.828125 C 4.921875 -7.460938 4.984375 -7.070312 4.984375 -6.65625 C 4.984375 -6.21875 4.960938 -5.8125 4.921875 -5.4375 C 4.835938 -4.882812 4.679688 -4.347656 4.453125 -3.828125 C 4.203125 -3.316406 3.863281 -2.867188 3.4375 -2.484375 C 2.976562 -2.109375 2.488281 -1.84375 1.96875 -1.6875 C 1.539062 -1.5625 1.113281 -1.5 0.6875 -1.5 C 0.25 -1.507812 -0.15625 -1.617188 -0.53125 -1.828125 C -0.90625 -2.015625 -1.25 -2.316406 -1.5625 -2.734375 C -2 -3.296875 -2.265625 -3.914062 -2.359375 -4.59375 Z M 0.203125 -4.90625 C 0.410156 -4.613281 0.800781 -4.429688 1.375 -4.359375 C 1.957031 -4.265625 2.363281 -4.429688 2.59375 -4.859375 C 2.738281 -5.117188 2.769531 -5.367188 2.6875 -5.609375 C 2.582031 -5.835938 2.421875 -6.035156 2.203125 -6.203125 C 1.703125 -6.585938 1.132812 -6.628906 0.5 -6.328125 C -0.144531 -6.003906 -0.242188 -5.53125 0.203125 -4.90625 Z M 0.203125 -4.90625 "/></g></g></g><g fill="#25754a" fill-opacity="1"><g transform="translate(330.911413, 257.51196)"><g><path d="M 2.125 -7.96875 C 1.84375 -8.28125 1.367188 -8.445312 0.703125 -8.46875 C 0.0546875 -8.488281 -0.363281 -8.242188 -0.5625 -7.734375 C -0.707031 -7.421875 -0.707031 -7.140625 -0.5625 -6.890625 C -0.425781 -6.640625 -0.222656 -6.4375 0.046875 -6.28125 C 0.347656 -6.09375 0.679688 -6.007812 1.046875 -6.03125 C 1.410156 -6.070312 1.722656 -6.179688 1.984375 -6.359375 C 2.234375 -6.523438 2.390625 -6.75 2.453125 -7.03125 C 2.515625 -7.332031 2.40625 -7.644531 2.125 -7.96875 Z M -2.6875 -8.015625 C -2.644531 -8.253906 -2.582031 -8.5 -2.5 -8.75 C -2.3125 -9.3125 -2.023438 -9.804688 -1.640625 -10.234375 C -1.203125 -10.671875 -0.71875 -11.003906 -0.1875 -11.234375 C 0.21875 -11.410156 0.640625 -11.519531 1.078125 -11.5625 C 1.535156 -11.582031 1.96875 -11.515625 2.375 -11.359375 C 2.769531 -11.191406 3.15625 -10.921875 3.53125 -10.546875 C 4.0625 -9.984375 4.421875 -9.363281 4.609375 -8.6875 C 4.691406 -8.34375 4.757812 -8 4.8125 -7.65625 C 4.875 -7.3125 4.890625 -6.957031 4.859375 -6.59375 C 4.847656 -6.4375 4.832031 -6.285156 4.8125 -6.140625 C 4.707031 -5.222656 4.40625 -4.382812 3.90625 -3.625 C 3.519531 -3.039062 3.101562 -2.644531 2.65625 -2.4375 C 4.007812 -1.039062 4.703125 -0.296875 4.734375 -0.203125 C 4.753906 -0.00390625 4.734375 0.164062 4.671875 0.3125 C 4.597656 0.476562 4.445312 0.675781 4.21875 0.90625 C 3.976562 1.125 3.785156 1.289062 3.640625 1.40625 C 3.421875 1.5625 3.210938 1.644531 3.015625 1.65625 C 2.816406 1.6875 2.191406 1.054688 1.140625 -0.234375 C 0.0546875 -1.472656 -0.960938 -2.597656 -1.921875 -3.609375 C -2.867188 -4.597656 -3.820312 -5.382812 -4.78125 -5.96875 C -4.882812 -6.03125 -4.988281 -6.097656 -5.09375 -6.171875 C -5.207031 -6.234375 -5.304688 -6.300781 -5.390625 -6.375 C -5.535156 -6.53125 -5.5625 -6.71875 -5.46875 -6.9375 C -5.363281 -7.132812 -5.210938 -7.332031 -5.015625 -7.53125 C -4.816406 -7.71875 -4.597656 -7.890625 -4.359375 -8.046875 C -4.128906 -8.191406 -3.953125 -8.273438 -3.828125 -8.296875 C -3.585938 -8.335938 -3.363281 -8.316406 -3.15625 -8.234375 C -2.976562 -8.160156 -2.820312 -8.085938 -2.6875 -8.015625 Z M -2.6875 -8.015625 "/></g></g></g><g fill="#25754a" fill-opacity="1"><g transform="translate(340.694855, 248.556888)"><g><path d="M -0.234375 -5.234375 C -0.296875 -5.035156 -0.285156 -4.925781 -0.203125 -4.90625 C 0.429688 -4.78125 0.960938 -4.816406 1.390625 -5.015625 C 1.828125 -5.222656 2.210938 -5.5625 2.546875 -6.03125 C 2.816406 -6.394531 3.003906 -6.945312 3.109375 -7.6875 C 3.222656 -8.425781 3.585938 -8.8125 4.203125 -8.84375 C 4.828125 -8.863281 5.128906 -8.492188 5.109375 -7.734375 C 5.078125 -6.953125 5 -6.382812 4.875 -6.03125 C 4.757812 -5.6875 4.578125 -5.335938 4.328125 -4.984375 C 4.078125 -4.640625 3.800781 -4.332031 3.5 -4.0625 C 3.082031 -3.675781 2.632812 -3.359375 2.15625 -3.109375 C 1.757812 -2.910156 1.34375 -2.765625 0.90625 -2.671875 C 0.46875 -2.566406 0.015625 -2.535156 -0.453125 -2.578125 C -1.316406 -2.640625 -2.117188 -2.890625 -2.859375 -3.328125 C -3.941406 -4.046875 -4.546875 -5.007812 -4.671875 -6.21875 C -4.691406 -6.863281 -4.585938 -7.476562 -4.359375 -8.0625 C -4.128906 -8.632812 -3.789062 -9.253906 -3.34375 -9.921875 C -2.875 -10.597656 -2.203125 -11.109375 -1.328125 -11.453125 C -0.460938 -11.785156 0.363281 -11.734375 1.15625 -11.296875 C 1.9375 -10.867188 2.40625 -10.5 2.5625 -10.1875 C 2.71875 -9.863281 2.726562 -9.566406 2.59375 -9.296875 C 2.457031 -8.992188 1.515625 -7.640625 -0.234375 -5.234375 Z M -1.375 -8.8125 C -1.894531 -8.289062 -2.148438 -7.8125 -2.140625 -7.375 C -2.128906 -6.925781 -2.082031 -6.601562 -2 -6.40625 C -1.988281 -6.375 -1.929688 -6.351562 -1.828125 -6.34375 C -1.722656 -6.332031 -1.019531 -7.285156 0.28125 -9.203125 C -0.28125 -9.441406 -0.832031 -9.3125 -1.375 -8.8125 Z M -1.375 -8.8125 "/></g></g></g><g fill="#25754a" fill-opacity="1"><g transform="translate(349.310975, 238.536837)"><g><path d="M -4.359375 -7.390625 C -4.304688 -8.222656 -4.09375 -8.890625 -3.71875 -9.390625 C -3.320312 -9.890625 -2.910156 -10.175781 -2.484375 -10.25 C -2.054688 -10.320312 -1.679688 -10.097656 -1.359375 -9.578125 C -1.046875 -9.054688 -1.054688 -8.648438 -1.390625 -8.359375 C -1.722656 -8.066406 -1.945312 -7.679688 -2.0625 -7.203125 C -2.1875 -6.722656 -1.960938 -6.226562 -1.390625 -5.71875 C -0.804688 -5.175781 0.00390625 -4.710938 1.046875 -4.328125 C 1.179688 -4.285156 1.320312 -4.234375 1.46875 -4.171875 C 1.625 -4.117188 1.765625 -4.050781 1.890625 -3.96875 C 2.128906 -3.8125 2.21875 -3.609375 2.15625 -3.359375 C 2.101562 -3.078125 1.992188 -2.800781 1.828125 -2.53125 C 1.660156 -2.257812 1.457031 -2.015625 1.21875 -1.796875 C 0.988281 -1.578125 0.800781 -1.4375 0.65625 -1.375 C 0.394531 -1.269531 0.113281 -1.253906 -0.1875 -1.328125 C -0.488281 -1.398438 -0.773438 -1.484375 -1.046875 -1.578125 C -1.546875 -1.773438 -2.148438 -2.085938 -2.859375 -2.515625 C -3.554688 -2.929688 -4.144531 -3.3125 -4.625 -3.65625 C -5.113281 -3.988281 -5.519531 -4.304688 -5.84375 -4.609375 C -6.175781 -4.898438 -6.40625 -5.175781 -6.53125 -5.4375 C -6.632812 -5.65625 -6.664062 -5.851562 -6.625 -6.03125 C -6.582031 -6.25 -6.492188 -6.476562 -6.359375 -6.71875 C -6.203125 -6.945312 -6.054688 -7.144531 -5.921875 -7.3125 C -5.691406 -7.539062 -5.46875 -7.6875 -5.25 -7.75 C -5.03125 -7.8125 -4.765625 -7.695312 -4.453125 -7.40625 Z M -4.359375 -7.390625 "/></g></g></g><g transform="matrix(1, 0, 0, 1, 275, 101)"><g clip-path="url(#375af94892)"><g fill="#3d98d6" fill-opacity="1"><g transform="translate(0.41607, 121.527651)"><g><path d="M 8.46875 -82.84375 C 9.351562 -83.226562 10.300781 -83.554688 11.3125 -83.828125 C 12.320312 -84.054688 13.304688 -84.347656 14.265625 -84.703125 C 20.609375 -86.828125 28.269531 -88.53125 37.25 -89.8125 C 46.175781 -91.039062 54.203125 -91.15625 61.328125 -90.15625 C 63.140625 -89.882812 65.03125 -89.457031 67 -88.875 C 68.976562 -88.257812 70.546875 -87.253906 71.703125 -85.859375 C 72.984375 -84.234375 74.007812 -80.789062 74.78125 -75.53125 C 75.507812 -70.238281 74.078125 -67.457031 70.484375 -67.1875 C 69.484375 -67.101562 68.457031 -67.160156 67.40625 -67.359375 C 66.363281 -67.546875 65.378906 -67.71875 64.453125 -67.875 C 57.796875 -68.914062 51.609375 -69.34375 45.890625 -69.15625 C 40.160156 -68.914062 34.257812 -68.257812 28.1875 -67.1875 C 28.113281 -62.3125 28.25 -57.648438 28.59375 -53.203125 C 33.738281 -53.816406 38.671875 -54.359375 43.390625 -54.828125 C 48.109375 -55.285156 51.359375 -55.5 53.140625 -55.46875 C 56.734375 -55.382812 58.53125 -53.082031 58.53125 -48.5625 C 58.5 -44.03125 57.957031 -41.070312 56.90625 -39.6875 C 55.632812 -37.945312 52.347656 -36.570312 47.046875 -35.5625 C 41.742188 -34.550781 36.445312 -33.835938 31.15625 -33.421875 C 31.851562 -29.703125 32.757812 -26.003906 33.875 -22.328125 C 34.769531 -22.367188 35.773438 -22.445312 36.890625 -22.5625 C 37.972656 -22.644531 39.234375 -22.742188 40.671875 -22.859375 C 46.160156 -23.285156 51.554688 -23.960938 56.859375 -24.890625 C 62.117188 -25.773438 66.988281 -26.914062 71.46875 -28.3125 C 71.9375 -28.425781 72.421875 -28.582031 72.921875 -28.78125 C 73.390625 -28.96875 73.875 -29.140625 74.375 -29.296875 C 75.5 -29.609375 76.484375 -29.800781 77.328125 -29.875 C 79.148438 -29.988281 80.46875 -29.273438 81.28125 -27.734375 C 82.09375 -26.179688 82.59375 -24.363281 82.78125 -22.28125 C 83.164062 -17.5625 82.664062 -14.003906 81.28125 -11.609375 C 80.507812 -10.253906 79.113281 -9.035156 77.09375 -7.953125 C 75.78125 -7.253906 73.960938 -6.554688 71.640625 -5.859375 C 68.160156 -4.816406 63.753906 -3.945312 58.421875 -3.25 C 53.085938 -2.550781 47.578125 -2.066406 41.890625 -1.796875 C 38.441406 -1.566406 33.972656 -1.296875 28.484375 -0.984375 C 22.953125 -0.671875 18.796875 -1.078125 16.015625 -2.203125 C 13.960938 -3.015625 12.359375 -4.367188 11.203125 -6.265625 C 10.035156 -8.117188 9.101562 -9.957031 8.40625 -11.78125 C 7.019531 -15.21875 5.820312 -19.664062 4.8125 -25.125 C 3.769531 -30.570312 2.976562 -36.21875 2.4375 -42.0625 C 1.894531 -47.863281 1.625 -53.488281 1.625 -58.9375 C 1.625 -64.351562 1.972656 -68.785156 2.671875 -72.234375 C 3.285156 -75.328125 4.113281 -77.800781 5.15625 -79.65625 C 5.96875 -81.125 7.070312 -82.1875 8.46875 -82.84375 Z M 8.46875 -82.84375 "/></g></g></g></g></g><g clip-path="url(#8c44678ded)"><path fill="#f6d636" d="M 227.34375 132.429688 C 227.519531 132.3125 227.726562 132.285156 227.921875 132.230469 C 228.304688 132.128906 228.707031 132.082031 229.082031 131.945312 C 229.671875 131.738281 230.277344 131.550781 230.84375 131.28125 C 231.476562 130.988281 232.078125 130.644531 232.648438 130.246094 C 232.90625 130.074219 233.144531 129.878906 233.367188 129.667969 C 233.792969 129.257812 234.148438 128.792969 234.429688 128.273438 C 234.71875 127.722656 234.894531 127.128906 235.082031 126.542969 C 235.300781 125.855469 235.480469 125.160156 235.625 124.453125 C 235.675781 124.226562 235.691406 123.988281 235.730469 123.757812 C 235.75 123.664062 235.796875 123.589844 235.867188 123.53125 C 235.917969 123.488281 235.972656 123.519531 236.007812 123.601562 C 236.105469 123.824219 236.1875 124.054688 236.246094 124.292969 C 236.414062 124.914062 236.609375 125.53125 236.828125 126.132812 C 236.996094 126.585938 237.199219 127.019531 237.429688 127.441406 C 237.554688 127.679688 238.316406 129.007812 238.480469 129.210938 C 238.875 129.714844 239.355469 130.109375 239.925781 130.394531 C 240.214844 130.535156 240.511719 130.648438 240.824219 130.730469 C 241.238281 130.847656 241.652344 131 242.066406 131.121094 C 242.59375 131.285156 243.125 131.402344 243.667969 131.484375 C 243.945312 131.535156 244.21875 131.601562 244.484375 131.683594 C 244.558594 131.707031 244.574219 131.761719 244.523438 131.820312 C 244.484375 131.863281 244.433594 131.890625 244.378906 131.90625 C 244.1875 131.980469 243.992188 132.035156 243.792969 132.082031 C 243.246094 132.230469 242.714844 132.417969 242.199219 132.652344 C 241.484375 132.957031 240.824219 133.355469 240.222656 133.847656 C 240.011719 134.015625 239.789062 134.175781 239.574219 134.34375 C 239.25 134.585938 239.015625 134.90625 238.773438 135.226562 C 237.839844 136.417969 236.824219 140.222656 236.761719 140.53125 C 236.757812 140.566406 236.746094 140.597656 236.734375 140.628906 C 236.714844 140.671875 236.699219 140.734375 236.652344 140.734375 C 236.597656 140.722656 236.558594 140.6875 236.539062 140.636719 C 236.195312 139.957031 235.824219 139.292969 235.433594 138.644531 C 235.074219 138.046875 234.730469 137.4375 234.34375 136.859375 C 234 136.335938 233.628906 135.832031 233.230469 135.347656 C 232.675781 134.691406 232.015625 134.179688 231.246094 133.808594 C 230.722656 133.554688 230.183594 133.347656 229.625 133.1875 C 229.148438 133.058594 228.675781 132.890625 228.195312 132.757812 C 227.972656 132.695312 227.753906 132.59375 227.511719 132.601562 C 227.445312 132.605469 227.394531 132.546875 227.34375 132.503906 Z M 227.34375 132.429688 " fill-opacity="1" fill-rule="nonzero"/></g><g clip-path="url(#f57dae217e)"><path fill="#f6d636" d="M 328.898438 106.917969 C 329.074219 106.804688 329.28125 106.773438 329.476562 106.722656 C 329.863281 106.617188 330.261719 106.574219 330.636719 106.4375 C 331.230469 106.226562 331.832031 106.042969 332.402344 105.773438 C 333.03125 105.480469 333.632812 105.132812 334.207031 104.738281 C 334.460938 104.5625 334.699219 104.371094 334.925781 104.15625 C 335.351562 103.746094 335.703125 103.28125 335.984375 102.761719 C 336.277344 102.210938 336.449219 101.621094 336.640625 101.035156 C 336.855469 100.347656 337.035156 99.652344 337.179688 98.945312 C 337.230469 98.714844 337.246094 98.476562 337.285156 98.246094 C 337.304688 98.15625 337.351562 98.078125 337.425781 98.019531 C 337.472656 97.976562 337.527344 98.007812 337.5625 98.09375 C 337.664062 98.316406 337.742188 98.546875 337.800781 98.785156 C 337.972656 99.40625 338.164062 100.019531 338.382812 100.625 C 338.554688 101.074219 338.753906 101.511719 338.988281 101.933594 C 339.109375 102.167969 339.875 103.5 340.035156 103.699219 C 340.429688 104.203125 340.910156 104.601562 341.480469 104.886719 C 341.769531 105.027344 342.070312 105.136719 342.378906 105.222656 C 342.792969 105.339844 343.207031 105.488281 343.621094 105.613281 C 344.148438 105.773438 344.683594 105.894531 345.226562 105.976562 C 345.5 106.023438 345.773438 106.089844 346.039062 106.175781 C 346.117188 106.195312 346.128906 106.25 346.078125 106.3125 C 346.039062 106.351562 345.992188 106.382812 345.9375 106.398438 C 345.746094 106.46875 345.546875 106.527344 345.347656 106.570312 C 344.800781 106.71875 344.269531 106.910156 343.753906 107.140625 C 343.039062 107.445312 342.382812 107.84375 341.777344 108.335938 C 341.570312 108.507812 341.347656 108.667969 341.128906 108.832031 C 340.808594 109.078125 340.570312 109.394531 340.332031 109.71875 C 339.398438 110.90625 338.378906 114.710938 338.320312 115.023438 C 338.3125 115.054688 338.304688 115.085938 338.289062 115.117188 C 338.273438 115.160156 338.257812 115.222656 338.207031 115.222656 C 338.152344 115.210938 338.117188 115.179688 338.09375 115.128906 C 337.753906 114.445312 337.382812 113.78125 336.988281 113.132812 C 336.628906 112.539062 336.285156 111.929688 335.898438 111.351562 C 335.554688 110.824219 335.183594 110.320312 334.785156 109.839844 C 334.230469 109.183594 333.570312 108.671875 332.800781 108.296875 C 332.277344 108.042969 331.738281 107.835938 331.179688 107.679688 C 330.703125 107.550781 330.230469 107.382812 329.75 107.246094 C 329.527344 107.183594 329.308594 107.085938 329.070312 107.089844 C 329.003906 107.09375 328.953125 107.035156 328.898438 106.996094 Z M 328.898438 106.917969 " fill-opacity="1" fill-rule="nonzero"/></g><g clip-path="url(#a4c18beab4)"><path fill="#f6d636" d="M 68.863281 240.671875 C 69.039062 240.554688 69.246094 240.527344 69.441406 240.476562 C 69.828125 240.371094 70.226562 240.324219 70.601562 240.191406 C 71.191406 239.980469 71.796875 239.796875 72.363281 239.527344 C 72.996094 239.230469 73.597656 238.886719 74.167969 238.492188 C 74.425781 238.316406 74.664062 238.125 74.890625 237.910156 C 75.3125 237.5 75.667969 237.035156 75.949219 236.515625 C 76.242188 235.964844 76.414062 235.371094 76.601562 234.785156 C 76.820312 234.097656 77 233.402344 77.144531 232.699219 C 77.195312 232.46875 77.210938 232.230469 77.25 232 C 77.269531 231.90625 77.316406 231.832031 77.386719 231.773438 C 77.4375 231.730469 77.492188 231.761719 77.527344 231.847656 C 77.625 232.070312 77.707031 232.300781 77.765625 232.535156 C 77.933594 233.15625 78.128906 233.773438 78.347656 234.375 C 78.519531 234.828125 78.71875 235.261719 78.949219 235.683594 C 79.074219 235.921875 79.839844 237.25 80 237.453125 C 80.394531 237.957031 80.875 238.351562 81.445312 238.636719 C 81.734375 238.777344 82.03125 238.890625 82.34375 238.972656 C 82.757812 239.089844 83.171875 239.242188 83.585938 239.367188 C 84.113281 239.527344 84.644531 239.648438 85.1875 239.726562 C 85.464844 239.777344 85.738281 239.84375 86.003906 239.925781 C 86.078125 239.949219 86.09375 240.003906 86.042969 240.066406 C 86.003906 240.105469 85.953125 240.132812 85.898438 240.148438 C 85.707031 240.222656 85.511719 240.28125 85.3125 240.324219 C 84.765625 240.472656 84.234375 240.660156 83.71875 240.894531 C 83.003906 241.199219 82.34375 241.597656 81.742188 242.089844 C 81.535156 242.261719 81.308594 242.421875 81.09375 242.585938 C 80.773438 242.828125 80.535156 243.148438 80.292969 243.46875 C 79.359375 244.660156 78.34375 248.464844 78.285156 248.777344 C 78.277344 248.808594 78.265625 248.839844 78.253906 248.871094 C 78.238281 248.914062 78.222656 248.976562 78.171875 248.976562 C 78.117188 248.964844 78.078125 248.933594 78.058594 248.878906 C 77.714844 248.199219 77.34375 247.535156 76.953125 246.886719 C 76.59375 246.289062 76.25 245.683594 75.863281 245.101562 C 75.519531 244.578125 75.148438 244.074219 74.75 243.589844 C 74.195312 242.9375 73.535156 242.421875 72.765625 242.050781 C 72.242188 241.796875 71.703125 241.589844 71.144531 241.433594 C 70.667969 241.300781 70.195312 241.136719 69.714844 241 C 69.492188 240.9375 69.273438 240.839844 69.03125 240.84375 C 68.96875 240.847656 68.914062 240.789062 68.863281 240.75 Z M 68.863281 240.671875 " fill-opacity="1" fill-rule="nonzero"/></g><g clip-path="url(#0500db9d9d)"><path fill="#f6d636" d="M 337.511719 329.433594 C 337.6875 329.316406 337.894531 329.289062 338.089844 329.234375 C 338.476562 329.132812 338.875 329.085938 339.25 328.949219 C 339.84375 328.742188 340.445312 328.554688 341.011719 328.285156 C 341.644531 327.992188 342.246094 327.648438 342.820312 327.25 C 343.074219 327.078125 343.3125 326.882812 343.539062 326.671875 C 343.960938 326.261719 344.316406 325.796875 344.597656 325.277344 C 344.890625 324.726562 345.0625 324.132812 345.253906 323.546875 C 345.46875 322.859375 345.648438 322.164062 345.792969 321.457031 C 345.84375 321.230469 345.859375 320.992188 345.898438 320.761719 C 345.917969 320.667969 345.964844 320.59375 346.035156 320.535156 C 346.085938 320.492188 346.140625 320.523438 346.175781 320.605469 C 346.277344 320.828125 346.355469 321.058594 346.414062 321.296875 C 346.585938 321.917969 346.777344 322.535156 346.996094 323.136719 C 347.167969 323.589844 347.367188 324.023438 347.601562 324.445312 C 347.722656 324.683594 348.488281 326.011719 348.648438 326.214844 C 349.042969 326.71875 349.523438 327.113281 350.09375 327.398438 C 350.382812 327.539062 350.683594 327.652344 350.992188 327.734375 C 351.40625 327.851562 351.820312 328.003906 352.234375 328.128906 C 352.761719 328.289062 353.296875 328.40625 353.839844 328.488281 C 354.113281 328.539062 354.386719 328.605469 354.652344 328.6875 C 354.726562 328.710938 354.742188 328.765625 354.691406 328.824219 C 354.652344 328.867188 354.605469 328.894531 354.550781 328.910156 C 354.355469 328.984375 354.160156 329.039062 353.960938 329.085938 C 353.414062 329.234375 352.882812 329.421875 352.367188 329.65625 C 351.652344 329.960938 350.996094 330.359375 350.390625 330.851562 C 350.183594 331.019531 349.957031 331.179688 349.742188 331.347656 C 349.421875 331.589844 349.183594 331.910156 348.941406 332.230469 C 348.011719 333.421875 346.992188 337.226562 346.933594 337.535156 C 346.925781 337.570312 346.917969 337.601562 346.902344 337.632812 C 346.886719 337.675781 346.871094 337.738281 346.820312 337.738281 C 346.765625 337.726562 346.726562 337.691406 346.707031 337.640625 C 346.367188 336.960938 345.996094 336.296875 345.601562 335.648438 C 345.242188 335.050781 344.898438 334.441406 344.511719 333.863281 C 344.167969 333.339844 343.796875 332.835938 343.398438 332.351562 C 342.84375 331.695312 342.183594 331.183594 341.414062 330.8125 C 340.890625 330.558594 340.351562 330.351562 339.792969 330.191406 C 339.316406 330.0625 338.84375 329.894531 338.363281 329.761719 C 338.140625 329.699219 337.921875 329.597656 337.679688 329.605469 C 337.617188 329.609375 337.5625 329.550781 337.511719 329.507812 Z M 337.511719 329.433594 " fill-opacity="1" fill-rule="nonzero"/></g><g clip-path="url(#58b471da45)"><path fill="#f6d636" d="M 178.257812 346.441406 C 178.433594 346.324219 178.640625 346.292969 178.835938 346.242188 C 179.222656 346.136719 179.621094 346.09375 179.996094 345.957031 C 180.589844 345.746094 181.191406 345.5625 181.757812 345.292969 C 182.390625 345 182.992188 344.65625 183.566406 344.257812 C 183.820312 344.085938 184.058594 343.890625 184.285156 343.675781 C 184.707031 343.269531 185.0625 342.804688 185.34375 342.28125 C 185.636719 341.730469 185.808594 341.140625 185.996094 340.554688 C 186.214844 339.867188 186.394531 339.171875 186.539062 338.464844 C 186.589844 338.234375 186.605469 338 186.644531 337.765625 C 186.664062 337.675781 186.710938 337.597656 186.78125 337.539062 C 186.832031 337.496094 186.886719 337.527344 186.921875 337.613281 C 187.019531 337.835938 187.101562 338.066406 187.160156 338.304688 C 187.328125 338.925781 187.523438 339.539062 187.742188 340.144531 C 187.914062 340.59375 188.113281 341.03125 188.34375 341.453125 C 188.46875 341.6875 189.234375 343.019531 189.394531 343.21875 C 189.789062 343.726562 190.269531 344.121094 190.839844 344.40625 C 191.128906 344.546875 191.429688 344.65625 191.738281 344.742188 C 192.152344 344.859375 192.566406 345.007812 192.980469 345.132812 C 193.507812 345.292969 194.039062 345.414062 194.582031 345.496094 C 194.859375 345.542969 195.132812 345.609375 195.398438 345.695312 C 195.472656 345.71875 195.488281 345.769531 195.4375 345.832031 C 195.398438 345.871094 195.347656 345.902344 195.292969 345.917969 C 195.101562 345.988281 194.90625 346.046875 194.707031 346.089844 C 194.160156 346.238281 193.628906 346.429688 193.113281 346.660156 C 192.398438 346.964844 191.738281 347.363281 191.136719 347.855469 C 190.929688 348.027344 190.703125 348.1875 190.488281 348.351562 C 190.167969 348.597656 189.929688 348.917969 189.6875 349.238281 C 188.757812 350.429688 187.738281 354.234375 187.679688 354.542969 C 187.671875 354.574219 187.660156 354.609375 187.648438 354.640625 C 187.632812 354.679688 187.617188 354.742188 187.566406 354.742188 C 187.511719 354.730469 187.472656 354.699219 187.453125 354.648438 C 187.109375 353.96875 186.738281 353.300781 186.347656 352.652344 C 185.988281 352.058594 185.644531 351.449219 185.257812 350.871094 C 184.914062 350.34375 184.542969 349.839844 184.144531 349.359375 C 183.589844 348.703125 182.929688 348.191406 182.160156 347.820312 C 181.636719 347.5625 181.097656 347.359375 180.539062 347.199219 C 180.0625 347.070312 179.589844 346.902344 179.109375 346.765625 C 178.886719 346.703125 178.667969 346.605469 178.425781 346.613281 C 178.363281 346.613281 178.308594 346.554688 178.257812 346.515625 Z M 178.257812 346.441406 " fill-opacity="1" fill-rule="nonzero"/></g><g clip-path="url(#e0770202e4)"><path fill="#f6d636" d="M 125.570312 296.914062 C 125.746094 296.796875 125.953125 296.769531 126.148438 296.71875 C 126.535156 296.613281 126.933594 296.566406 127.3125 296.433594 C 127.902344 296.222656 128.507812 296.039062 129.074219 295.769531 C 129.703125 295.472656 130.304688 295.128906 130.878906 294.734375 C 131.132812 294.558594 131.375 294.367188 131.597656 294.152344 C 132.023438 293.742188 132.375 293.277344 132.65625 292.757812 C 132.949219 292.207031 133.121094 291.613281 133.3125 291.027344 C 133.527344 290.339844 133.707031 289.644531 133.855469 288.941406 C 133.902344 288.710938 133.921875 288.472656 133.957031 288.242188 C 133.976562 288.148438 134.023438 288.074219 134.097656 288.015625 C 134.144531 287.972656 134.199219 288.003906 134.234375 288.089844 C 134.335938 288.3125 134.414062 288.542969 134.472656 288.777344 C 134.644531 289.398438 134.835938 290.015625 135.054688 290.617188 C 135.226562 291.070312 135.425781 291.503906 135.660156 291.925781 C 135.785156 292.164062 136.546875 293.492188 136.707031 293.695312 C 137.101562 294.199219 137.582031 294.59375 138.152344 294.878906 C 138.441406 295.019531 138.742188 295.132812 139.050781 295.214844 C 139.464844 295.332031 139.878906 295.484375 140.296875 295.609375 C 140.820312 295.769531 141.355469 295.890625 141.898438 295.96875 C 142.171875 296.019531 142.445312 296.085938 142.714844 296.167969 C 142.789062 296.191406 142.800781 296.246094 142.75 296.308594 C 142.710938 296.347656 142.664062 296.375 142.609375 296.390625 C 142.417969 296.464844 142.21875 296.523438 142.019531 296.566406 C 141.472656 296.714844 140.941406 296.902344 140.425781 297.136719 C 139.710938 297.441406 139.054688 297.839844 138.449219 298.332031 C 138.242188 298.503906 138.019531 298.664062 137.800781 298.828125 C 137.480469 299.070312 137.242188 299.390625 137.003906 299.710938 C 136.070312 300.902344 135.054688 304.707031 134.992188 305.019531 C 134.984375 305.050781 134.976562 305.082031 134.960938 305.113281 C 134.945312 305.15625 134.929688 305.21875 134.878906 305.21875 C 134.828125 305.207031 134.789062 305.175781 134.765625 305.121094 C 134.425781 304.441406 134.054688 303.777344 133.660156 303.128906 C 133.300781 302.53125 132.960938 301.925781 132.570312 301.34375 C 132.230469 300.820312 131.859375 300.316406 131.457031 299.832031 C 130.90625 299.179688 130.242188 298.664062 129.472656 298.292969 C 128.949219 298.039062 128.410156 297.832031 127.851562 297.675781 C 127.375 297.542969 126.902344 297.378906 126.421875 297.242188 C 126.199219 297.179688 125.980469 297.082031 125.742188 297.085938 C 125.675781 297.089844 125.625 297.03125 125.570312 296.992188 Z M 125.570312 296.914062 " fill-opacity="1" fill-rule="nonzero"/></g><g clip-path="url(#18d71db2ce)"><path fill="#f6d636" d="M 29.210938 320.929688 C 29.386719 320.8125 29.59375 320.785156 29.789062 320.734375 C 30.171875 320.628906 30.570312 320.582031 30.949219 320.449219 C 31.539062 320.238281 32.144531 320.054688 32.710938 319.785156 C 33.339844 319.488281 33.945312 319.144531 34.515625 318.75 C 34.773438 318.574219 35.011719 318.378906 35.234375 318.167969 C 35.660156 317.757812 36.011719 317.292969 36.296875 316.773438 C 36.585938 316.222656 36.761719 315.628906 36.949219 315.042969 C 37.167969 314.355469 37.347656 313.660156 37.492188 312.957031 C 37.539062 312.726562 37.558594 312.488281 37.597656 312.257812 C 37.617188 312.164062 37.660156 312.089844 37.734375 312.03125 C 37.785156 311.988281 37.839844 312.019531 37.875 312.105469 C 37.972656 312.328125 38.050781 312.558594 38.113281 312.792969 C 38.28125 313.414062 38.476562 314.03125 38.691406 314.632812 C 38.863281 315.085938 39.066406 315.519531 39.296875 315.941406 C 39.421875 316.179688 40.183594 317.507812 40.347656 317.710938 C 40.742188 318.214844 41.222656 318.609375 41.792969 318.894531 C 42.082031 319.035156 42.378906 319.148438 42.691406 319.230469 C 43.105469 319.347656 43.519531 319.5 43.933594 319.625 C 44.457031 319.785156 44.992188 319.90625 45.535156 319.984375 C 45.8125 320.035156 46.082031 320.101562 46.351562 320.183594 C 46.425781 320.207031 46.441406 320.261719 46.390625 320.324219 C 46.347656 320.363281 46.300781 320.390625 46.246094 320.40625 C 46.054688 320.480469 45.859375 320.539062 45.660156 320.582031 C 45.113281 320.730469 44.582031 320.917969 44.066406 321.152344 C 43.351562 321.457031 42.691406 321.855469 42.085938 322.347656 C 41.878906 322.519531 41.65625 322.679688 41.441406 322.84375 C 41.117188 323.085938 40.882812 323.40625 40.640625 323.726562 C 39.707031 324.917969 38.691406 328.722656 38.628906 329.035156 C 38.625 329.066406 38.613281 329.097656 38.601562 329.128906 C 38.582031 329.171875 38.566406 329.234375 38.519531 329.234375 C 38.464844 329.222656 38.425781 329.191406 38.402344 329.136719 C 38.0625 328.457031 37.691406 327.792969 37.300781 327.144531 C 36.941406 326.546875 36.597656 325.9375 36.210938 325.359375 C 35.867188 324.835938 35.496094 324.332031 35.097656 323.847656 C 34.542969 323.195312 33.882812 322.679688 33.113281 322.308594 C 32.589844 322.054688 32.050781 321.847656 31.492188 321.691406 C 31.011719 321.558594 30.539062 321.394531 30.0625 321.257812 C 29.839844 321.195312 29.621094 321.097656 29.378906 321.101562 C 29.3125 321.105469 29.261719 321.046875 29.210938 321.003906 Z M 29.210938 320.929688 " fill-opacity="1" fill-rule="nonzero"/></g><g clip-path="url(#6ae0a09cad)"><path fill="#f6d636" d="M 46.4375 46.441406 C 46.609375 46.324219 46.816406 46.292969 47.015625 46.242188 C 47.398438 46.136719 47.796875 46.09375 48.175781 45.957031 C 48.765625 45.746094 49.371094 45.5625 49.9375 45.292969 C 50.566406 45 51.167969 44.65625 51.742188 44.257812 C 51.996094 44.085938 52.238281 43.890625 52.460938 43.675781 C 52.886719 43.269531 53.238281 42.804688 53.519531 42.28125 C 53.8125 41.730469 53.984375 41.140625 54.175781 40.554688 C 54.390625 39.867188 54.574219 39.171875 54.71875 38.464844 C 54.765625 38.234375 54.785156 38 54.820312 37.765625 C 54.839844 37.675781 54.886719 37.597656 54.960938 37.539062 C 55.011719 37.496094 55.0625 37.527344 55.101562 37.613281 C 55.199219 37.835938 55.277344 38.066406 55.335938 38.304688 C 55.507812 38.925781 55.699219 39.539062 55.917969 40.144531 C 56.089844 40.59375 56.292969 41.03125 56.523438 41.453125 C 56.648438 41.6875 57.410156 43.019531 57.570312 43.21875 C 57.964844 43.726562 58.449219 44.121094 59.015625 44.40625 C 59.304688 44.546875 59.605469 44.65625 59.914062 44.742188 C 60.328125 44.859375 60.746094 45.007812 61.160156 45.132812 C 61.683594 45.292969 62.21875 45.414062 62.761719 45.496094 C 63.039062 45.542969 63.308594 45.609375 63.578125 45.695312 C 63.652344 45.71875 63.664062 45.769531 63.617188 45.832031 C 63.574219 45.871094 63.527344 45.902344 63.472656 45.917969 C 63.28125 45.988281 63.085938 46.046875 62.882812 46.089844 C 62.339844 46.238281 61.808594 46.429688 61.289062 46.660156 C 60.578125 46.964844 59.917969 47.363281 59.3125 47.855469 C 59.105469 48.027344 58.882812 48.1875 58.664062 48.351562 C 58.34375 48.597656 58.109375 48.917969 57.867188 49.238281 C 56.933594 50.429688 55.917969 54.234375 55.855469 54.542969 C 55.847656 54.574219 55.839844 54.609375 55.828125 54.640625 C 55.808594 54.679688 55.792969 54.742188 55.746094 54.742188 C 55.691406 54.730469 55.652344 54.699219 55.628906 54.648438 C 55.289062 53.96875 54.917969 53.300781 54.527344 52.652344 C 54.167969 52.058594 53.824219 51.449219 53.4375 50.871094 C 53.09375 50.34375 52.722656 49.839844 52.324219 49.359375 C 51.769531 48.703125 51.105469 48.191406 50.339844 47.820312 C 49.816406 47.5625 49.273438 47.359375 48.714844 47.199219 C 48.238281 47.070312 47.765625 46.902344 47.285156 46.765625 C 47.0625 46.703125 46.847656 46.605469 46.605469 46.613281 C 46.539062 46.613281 46.488281 46.554688 46.4375 46.515625 Z M 46.4375 46.441406 " fill-opacity="1" fill-rule="nonzero"/></g><g clip-path="url(#8199db08b4)"><path fill="#f6d636" d="M 178.257812 68.660156 C 178.433594 68.542969 178.640625 68.515625 178.835938 68.460938 C 179.222656 68.359375 179.621094 68.3125 179.996094 68.175781 C 180.589844 67.96875 181.191406 67.78125 181.757812 67.511719 C 182.390625 67.21875 182.992188 66.875 183.566406 66.476562 C 183.820312 66.304688 184.058594 66.109375 184.285156 65.898438 C 184.707031 65.488281 185.0625 65.023438 185.34375 64.503906 C 185.636719 63.953125 185.808594 63.359375 185.996094 62.773438 C 186.214844 62.085938 186.394531 61.390625 186.539062 60.683594 C 186.589844 60.457031 186.605469 60.21875 186.644531 59.988281 C 186.664062 59.894531 186.710938 59.820312 186.78125 59.761719 C 186.832031 59.71875 186.886719 59.75 186.921875 59.832031 C 187.019531 60.054688 187.101562 60.285156 187.160156 60.523438 C 187.328125 61.144531 187.523438 61.761719 187.742188 62.363281 C 187.914062 62.816406 188.113281 63.25 188.34375 63.671875 C 188.46875 63.910156 189.234375 65.238281 189.394531 65.441406 C 189.789062 65.945312 190.269531 66.339844 190.839844 66.625 C 191.128906 66.765625 191.429688 66.878906 191.738281 66.960938 C 192.152344 67.078125 192.566406 67.230469 192.980469 67.355469 C 193.507812 67.515625 194.039062 67.632812 194.582031 67.714844 C 194.859375 67.765625 195.132812 67.832031 195.398438 67.914062 C 195.472656 67.9375 195.488281 67.992188 195.4375 68.050781 C 195.398438 68.09375 195.347656 68.121094 195.292969 68.136719 C 195.101562 68.210938 194.90625 68.265625 194.707031 68.3125 C 194.160156 68.460938 193.628906 68.648438 193.113281 68.882812 C 192.398438 69.1875 191.738281 69.585938 191.136719 70.078125 C 190.929688 70.246094 190.703125 70.40625 190.488281 70.574219 C 190.167969 70.816406 189.929688 71.136719 189.6875 71.457031 C 188.757812 72.648438 187.738281 76.453125 187.679688 76.761719 C 187.671875 76.796875 187.660156 76.828125 187.648438 76.859375 C 187.632812 76.902344 187.617188 76.964844 187.566406 76.964844 C 187.511719 76.953125 187.472656 76.917969 187.453125 76.867188 C 187.109375 76.1875 186.738281 75.523438 186.347656 74.875 C 185.988281 74.277344 185.644531 73.667969 185.257812 73.089844 C 184.914062 72.566406 184.542969 72.0625 184.144531 71.578125 C 183.589844 70.921875 182.929688 70.410156 182.160156 70.039062 C 181.636719 69.785156 181.097656 69.578125 180.539062 69.417969 C 180.0625 69.289062 179.589844 69.121094 179.109375 68.988281 C 178.886719 68.925781 178.667969 68.824219 178.425781 68.832031 C 178.363281 68.835938 178.308594 68.777344 178.257812 68.734375 Z M 178.257812 68.660156 " fill-opacity="1" fill-rule="nonzero"/></g><g clip-path="url(#2f730a057b)"><path fill="#f6d636" d="M 276.472656 29.433594 C 276.648438 29.316406 276.855469 29.289062 277.050781 29.234375 C 277.4375 29.132812 277.835938 29.085938 278.214844 28.949219 C 278.804688 28.742188 279.40625 28.554688 279.976562 28.285156 C 280.605469 27.992188 281.207031 27.648438 281.78125 27.25 C 282.035156 27.078125 282.277344 26.882812 282.5 26.671875 C 282.925781 26.261719 283.277344 25.796875 283.558594 25.277344 C 283.851562 24.726562 284.023438 24.132812 284.214844 23.546875 C 284.429688 22.859375 284.609375 22.164062 284.757812 21.457031 C 284.804688 21.230469 284.824219 20.992188 284.859375 20.761719 C 284.878906 20.667969 284.925781 20.59375 285 20.535156 C 285.046875 20.492188 285.101562 20.523438 285.136719 20.605469 C 285.238281 20.832031 285.316406 21.058594 285.375 21.296875 C 285.546875 21.917969 285.738281 22.535156 285.957031 23.136719 C 286.128906 23.589844 286.328125 24.023438 286.5625 24.445312 C 286.6875 24.683594 287.449219 26.011719 287.609375 26.214844 C 288.003906 26.71875 288.484375 27.113281 289.054688 27.398438 C 289.34375 27.539062 289.644531 27.652344 289.953125 27.734375 C 290.367188 27.851562 290.78125 28.003906 291.199219 28.128906 C 291.722656 28.289062 292.257812 28.40625 292.800781 28.488281 C 293.074219 28.539062 293.347656 28.605469 293.613281 28.6875 C 293.691406 28.710938 293.703125 28.765625 293.652344 28.824219 C 293.613281 28.867188 293.566406 28.894531 293.511719 28.910156 C 293.320312 28.984375 293.121094 29.039062 292.921875 29.085938 C 292.375 29.234375 291.84375 29.421875 291.328125 29.65625 C 290.613281 29.960938 289.957031 30.359375 289.351562 30.851562 C 289.144531 31.019531 288.921875 31.179688 288.703125 31.347656 C 288.382812 31.589844 288.144531 31.910156 287.90625 32.230469 C 286.972656 33.421875 285.957031 37.226562 285.894531 37.535156 C 285.886719 37.570312 285.878906 37.601562 285.863281 37.632812 C 285.847656 37.675781 285.832031 37.738281 285.78125 37.738281 C 285.726562 37.726562 285.691406 37.691406 285.667969 37.640625 C 285.328125 36.960938 284.957031 36.296875 284.5625 35.648438 C 284.203125 35.050781 283.863281 34.441406 283.472656 33.863281 C 283.128906 33.339844 282.761719 32.835938 282.359375 32.351562 C 281.804688 31.695312 281.144531 31.183594 280.375 30.8125 C 279.851562 30.558594 279.3125 30.351562 278.753906 30.191406 C 278.277344 30.0625 277.804688 29.894531 277.324219 29.761719 C 277.101562 29.699219 276.882812 29.597656 276.644531 29.605469 C 276.578125 29.609375 276.527344 29.550781 276.472656 29.507812 Z M 276.472656 29.433594 " fill-opacity="1" fill-rule="nonzero"/></g><g clip-path="url(#a8b6809629)"><path fill="#f6d636" d="M 257.519531 305.417969 C 257.695312 305.300781 257.902344 305.273438 258.101562 305.222656 C 258.484375 305.117188 258.882812 305.070312 259.261719 304.933594 C 259.851562 304.726562 260.457031 304.539062 261.023438 304.269531 C 261.652344 303.976562 262.253906 303.632812 262.828125 303.238281 C 263.082031 303.0625 263.324219 302.867188 263.546875 302.65625 C 263.972656 302.246094 264.324219 301.78125 264.605469 301.261719 C 264.898438 300.710938 265.070312 300.117188 265.261719 299.53125 C 265.476562 298.84375 265.65625 298.148438 265.804688 297.445312 C 265.851562 297.214844 265.871094 296.976562 265.90625 296.746094 C 265.925781 296.652344 265.972656 296.578125 266.046875 296.519531 C 266.09375 296.476562 266.148438 296.507812 266.1875 296.589844 C 266.285156 296.816406 266.363281 297.042969 266.421875 297.28125 C 266.59375 297.902344 266.785156 298.519531 267.003906 299.121094 C 267.175781 299.574219 267.378906 300.007812 267.609375 300.429688 C 267.734375 300.667969 268.496094 301.996094 268.65625 302.199219 C 269.050781 302.703125 269.535156 303.097656 270.101562 303.382812 C 270.390625 303.523438 270.691406 303.636719 271 303.71875 C 271.414062 303.835938 271.832031 303.988281 272.246094 304.113281 C 272.769531 304.273438 273.304688 304.394531 273.847656 304.472656 C 274.125 304.523438 274.394531 304.589844 274.664062 304.671875 C 274.738281 304.695312 274.75 304.75 274.699219 304.808594 C 274.660156 304.851562 274.613281 304.878906 274.558594 304.894531 C 274.367188 304.96875 274.171875 305.023438 273.96875 305.070312 C 273.425781 305.21875 272.894531 305.40625 272.375 305.640625 C 271.664062 305.945312 271.003906 306.34375 270.398438 306.835938 C 270.191406 307.003906 269.96875 307.167969 269.75 307.332031 C 269.429688 307.574219 269.195312 307.894531 268.953125 308.214844 C 268.019531 309.40625 267.003906 313.210938 266.941406 313.523438 C 266.933594 313.554688 266.925781 313.585938 266.914062 313.617188 C 266.894531 313.660156 266.878906 313.722656 266.832031 313.722656 C 266.777344 313.710938 266.738281 313.675781 266.714844 313.625 C 266.375 312.945312 266.003906 312.28125 265.613281 311.632812 C 265.253906 311.035156 264.910156 310.425781 264.519531 309.847656 C 264.179688 309.324219 263.808594 308.820312 263.410156 308.335938 C 262.855469 307.683594 262.191406 307.167969 261.421875 306.796875 C 260.902344 306.542969 260.359375 306.335938 259.800781 306.175781 C 259.324219 306.046875 258.851562 305.878906 258.371094 305.746094 C 258.148438 305.683594 257.933594 305.582031 257.691406 305.589844 C 257.625 305.59375 257.574219 305.535156 257.519531 305.492188 Z M 257.519531 305.417969 " fill-opacity="1" fill-rule="nonzero"/></g></svg>